<svg xmlns="http://www.w3.org/2000/svg" xmlns:xlink="http://www.w3.org/1999/xlink" xmlns:lucid="lucid" width="1352" height="1748.77"><g transform="translate(1659.1666666666279 1200)" lucid:page-tab-id="0_0"><path d="M-1620-431.24v-384a6 6 0 0 1 6-6h35.67v390zM-1620-431.24h41.67V0H-1620zM-1578.33 340H-1614a6 6 0 0 1-6-6V0h41.67z" stroke="#3a414a" fill="#f2f3f5"/><path d="M-1578.33-821.24H-334a6 6 0 0 1 6 6v384h-1250.33zM-1578.33-431.24H-328V0h-1250.33zM-328 0v334a6 6 0 0 1-6 6h-1244.33V0z" stroke="#3a414a" fill="none"/><use xlink:href="#a" transform="matrix(-1.8369701987210297e-16,-1,1,-1.8369701987210297e-16,-1620,-431.2349999999997) translate(121.57407407407408 25.444444444444443)"/><use xlink:href="#b" transform="matrix(-1.8369701987210297e-16,-1,1,-1.8369701987210297e-16,-1620,-431.2349999999997) translate(210.4012345679012 25.444444444444443)"/><use xlink:href="#c" transform="matrix(-1.8369701987210297e-16,-1,1,-1.8369701987210297e-16,-1620,0) translate(135.87654320987653 25.444444444444443)"/><use xlink:href="#d" transform="matrix(-1.8369701987210297e-16,-1,1,-1.8369701987210297e-16,-1620,0) translate(251.679012345679 25.444444444444443)"/><use xlink:href="#e" transform="matrix(-1.8369701987210297e-16,-1,1,-1.8369701987210297e-16,-1620.0000000000002,339.9999999999998) translate(141.0493827160494 25.444444444444443)"/><path d="M-1619.17-1180H-328v310h-1291.17z" fill="#e5e5e5"/><path d="M-1084-1128a16 16 0 0 1 16-16h688a16 16 0 0 1 16 16v206a16 16 0 0 1-16 16h-688a16 16 0 0 1-16-16zM-1619.17-1180h435.62v310h-435.62zM-1183.55-1180s63.55 46.5 63.55 155c0 0 0 108.5-63.55 155" fill="#fff"/><use xlink:href="#f" transform="matrix(1,0,0,1,-1573.1666666666665,-1076.6666666666667) translate(0 36.136)"/><use xlink:href="#g" transform="matrix(1,0,0,1,-1573.1666666666665,-1076.6666666666667) translate(134.388 36.136)"/><use xlink:href="#h" transform="matrix(1,0,0,1,-1573.1666666666665,-1014.5146666666667) translate(0 14.145199999999997)"/><use xlink:href="#i" transform="matrix(1,0,0,1,-1573.1666666666665,-1014.5146666666667) translate(45.29 14.145199999999997)"/><use xlink:href="#j" transform="matrix(1,0,0,1,-1573.1666666666665,-1014.5146666666667) translate(97.55199999999999 14.145199999999997)"/><use xlink:href="#k" transform="matrix(1,0,0,1,-1573.1666666666665,-1014.5146666666667) translate(188.048 14.145199999999997)"/><use xlink:href="#l" transform="matrix(1,0,0,1,-1573.1666666666665,-1014.5146666666667) translate(233.73000000000002 14.145199999999997)"/><use xlink:href="#m" transform="matrix(1,0,0,1,-1573.1666666666665,-1014.5146666666667) translate(271.85200000000003 14.145199999999997)"/><use xlink:href="#n" transform="matrix(1,0,0,1,-1573.1666666666665,-1014.5146666666667) translate(0 35.6828)"/><use xlink:href="#o" transform="matrix(1,0,0,1,-1573.1666666666665,-1014.5146666666667) translate(34.272 35.6828)"/><use xlink:href="#p" transform="matrix(1,0,0,1,-1573.1666666666665,-1014.5146666666667) translate(109.07400000000001 35.6828)"/><use xlink:href="#q" transform="matrix(1,0,0,1,-1573.1666666666665,-1014.5146666666667) translate(133.336 35.6828)"/><use xlink:href="#r" transform="matrix(1,0,0,1,-1573.1666666666665,-1014.5146666666667) translate(184.26800000000003 35.6828)"/><use xlink:href="#s" transform="matrix(1,0,0,1,-1573.1666666666665,-1014.5146666666667) translate(212.81400000000002 35.6828)"/><use xlink:href="#t" transform="matrix(1,0,0,1,-1573.1666666666665,-1014.5146666666667) translate(266.882 35.6828)"/><g filter="url(#u)"><path d="M-1482.33 50a20 20 0 0 1 20-20h260a20 20 0 0 1 20 20v238.24a20 20 0 0 1-20 20h-260a20 20 0 0 1-20-20z" stroke="#747474" stroke-width="3" fill="#f2f3f5"/><path d="M-1367.33 108.32h183.5v3h-183.5zM-1480.83 229h297v39.24h-297z" fill="#e5e5e5"/><use xlink:href="#v" transform="matrix(1,0,0,1,-1367.333333333333,74.67999999999978) translate(0 20.02)"/><use xlink:href="#w" transform="matrix(1,0,0,1,-1367.333333333333,74.67999999999978) translate(51.839999999999996 20.02)"/><use xlink:href="#x" transform="matrix(1,0,0,1,-1367.333333333333,126.31999999999977) translate(0 15.265)"/><g><use xlink:href="#y" transform="matrix(1,0,0,1,-1462.333333333333,239.0099999999998) translate(114.205 15.265)"/></g></g><path d="M-1387.33 87.5c0 20.7-16.8 37.5-37.5 37.5s-37.5-16.8-37.5-37.5 16.8-37.5 37.5-37.5 37.5 16.8 37.5 37.5z" stroke="#000" stroke-opacity="0" fill="#65cae4"/><path d="M-1413.67 77.38c0-6.84-4.95-12.38-11.16-12.38-6.17 0-11.16 5.53-11.16 12.38 0 6.84 5 12.37 11.17 12.37 6.2 0 11.16-5.53 11.16-12.38zm11.34 28.12v-2.07c0-5.54-6.4-8.82-12.56-11.43l-.57-.27c-.45-.18-.9-.18-1.4.1-2.34 1.48-5.13 2.42-8.05 2.42-2.93 0-5.63-.86-8.06-2.43-.5-.27-.94-.27-1.4-.1l-.58.28c-5.98 2.6-12.37 5.98-12.37 11.43v2.07c0 2.43 2.07 4.5 4.5 4.5h36c2.43 0 4.5-2.07 4.5-4.5z" stroke="#000" stroke-opacity="0" fill="#fff"/><g filter="url(#z)"><path d="M-1103.17 50a20 20 0 0 1 20-20h260a20 20 0 0 1 20 20v238.24a20 20 0 0 1-20 20h-260a20 20 0 0 1-20-20z" stroke="#747474" stroke-width="3" fill="#f2f3f5"/><path d="M-988.17 108.32h183.5v3h-183.5zM-1101.67 229h297v39.24h-297z" fill="#e5e5e5"/><use xlink:href="#A" transform="matrix(1,0,0,1,-988.1666666666665,74.67999999999992) translate(0 20.02)"/><use xlink:href="#B" transform="matrix(1,0,0,1,-988.1666666666665,74.67999999999992) translate(46.96 20.02)"/><use xlink:href="#x" transform="matrix(1,0,0,1,-988.1666666666665,126.31999999999991) translate(0 15.265)"/><use xlink:href="#C" transform="matrix(1,0,0,1,-988.1666666666665,160.5499999999999) translate(0 15.265)"/><use xlink:href="#D" transform="matrix(1,0,0,1,-988.1666666666665,160.5499999999999) translate(49.31999999999999 15.265)"/><g><use xlink:href="#y" transform="matrix(1,0,0,1,-1083.1666666666665,239.0099999999999) translate(114.205 15.265)"/></g></g><path d="M-1008.17 87.5c0 20.7-16.8 37.5-37.5 37.5s-37.5-16.8-37.5-37.5 16.8-37.5 37.5-37.5 37.5 16.8 37.5 37.5z" stroke="#000" stroke-opacity="0" fill="#65cae4"/><path d="M-1034.5 77.38c0-6.84-4.96-12.38-11.17-12.38-6.16 0-11.16 5.53-11.16 12.38 0 6.84 5 12.37 11.16 12.37 6.2 0 11.16-5.53 11.16-12.38zm11.33 28.12v-2.07c0-5.54-6.4-8.82-12.55-11.43l-.6-.27c-.44-.18-.9-.18-1.38.1-2.34 1.48-5.13 2.42-8.06 2.42-2.92 0-5.62-.86-8.05-2.43-.5-.27-.96-.27-1.4-.1l-.6.28c-5.98 2.6-12.37 5.98-12.37 11.43v2.07c0 2.43 2.07 4.5 4.5 4.5h36c2.43 0 4.5-2.07 4.5-4.5z" stroke="#000" stroke-opacity="0" fill="#fff"/><g filter="url(#E)"><path d="M-1292.75-762.47a20 20 0 0 1 20-20h260a20 20 0 0 1 20 20V-490a20 20 0 0 1-20 20h-260a20 20 0 0 1-20-20z" stroke="#747474" stroke-width="3" fill="#f2f3f5"/><path d="M-1177.75-704.15h183.5v3h-183.5zM-1291.25-549.23h297V-510h-297z" fill="#cbc2a3"/><use xlink:href="#F" transform="matrix(1,0,0,1,-1177.7499999999998,-737.79) translate(0 20.02)"/><use xlink:href="#G" transform="matrix(1,0,0,1,-1177.7499999999998,-686.1499999999999) translate(0 15.265)"/><use xlink:href="#H" transform="matrix(1,0,0,1,-1177.7499999999998,-686.1499999999999) translate(51.14999999999999 15.265)"/><use xlink:href="#I" transform="matrix(1,0,0,1,-1177.7499999999998,-651.92) translate(0 15.265)"/><use xlink:href="#H" transform="matrix(1,0,0,1,-1177.7499999999998,-651.92) translate(51.150000000000006 15.265)"/><use xlink:href="#J" transform="matrix(1,0,0,1,-1177.7499999999998,-617.6899999999999) translate(0 15.265)"/><use xlink:href="#K" transform="matrix(1,0,0,1,-1177.7499999999998,-617.6899999999999) translate(49.364999999999995 15.265)"/><g><use xlink:href="#L" transform="matrix(1,0,0,1,-1177.7499999999998,-583.4599999999999) translate(0 15.265)"/><use xlink:href="#M" transform="matrix(1,0,0,1,-1177.7499999999998,-583.4599999999999) translate(38.98499999999999 15.265)"/></g><g><use xlink:href="#N" transform="matrix(1,0,0,1,-1272.7499999999998,-539.2299999999999) translate(52.1875 15.265)"/><use xlink:href="#O" transform="matrix(1,0,0,1,-1272.7499999999998,-539.2299999999999) translate(135.46749999999997 15.265)"/><use xlink:href="#P" transform="matrix(1,0,0,1,-1272.7499999999998,-539.2299999999999) translate(162.5125 15.265)"/></g></g><path d="M-1197.75-724.97c0 20.7-16.8 37.5-37.5 37.5s-37.5-16.8-37.5-37.5 16.8-37.5 37.5-37.5 37.5 16.8 37.5 37.5z" stroke="#000" stroke-opacity="0" fill="#83b6ff"/><path d="M-1243.48-723.25c-1.2-1.78-1.8-3.82-1.8-6.12 0-3.9 1.64-7.13 4.18-9.1-.84-1.53-2.54-2.63-4.75-2.63-3.76 0-5.87 3.07-5.87 6.56 0 1.86.6 3.47 1.86 4.6.68.65 1.27 1.52 1.27 2.36 0 .84-.32 1.7-2.45 2.63-3.06 1.37-5.87 3.24-5.95 6.04.08 1.85 1.27 3.3 3.07 3.3h2.8c.43 0 .84-.25 1.1-.68 1.36-2.45 3.9-3.98 6.04-5.1.77-.34.94-1.28.52-1.87zM-1218.7-724.95c-2.1-.92-2.46-1.7-2.46-2.63 0-.94.6-1.78 1.28-2.37 1.28-1.2 1.87-2.73 1.87-4.6 0-3.5-2.05-6.55-5.88-6.55-2.2 0-3.9 1.1-4.84 2.63 2.54 1.97 4.16 5.2 4.16 9.1 0 2.3-.6 4.34-1.78 6.13-.42.68-.17 1.52.5 1.86 2.13 1.02 4.68 2.65 6.04 5.1.27.43.68.68 1.1.68h2.83c1.78 0 2.97-1.45 2.97-3.3.08-2.82-2.72-4.68-5.8-6.05z" stroke="#000" stroke-opacity="0" fill="#fff"/><path d="M-1229.2-718.77c-2.3-1.02-2.72-1.96-2.72-2.9 0-1 .7-1.93 1.45-2.62 1.35-1.26 2.12-3.06 2.12-5.1 0-3.8-2.3-7.12-6.45-7.12-4.16 0-6.44 3.3-6.44 7.12 0 2.04.76 3.84 2.1 5.1.77.78 1.46 1.72 1.46 2.63 0 1.02-.34 1.88-2.73 2.9-3.4 1.43-6.63 3.06-6.7 6.12 0 2.02 1.52 3.73 3.47 3.73h17.66c1.94 0 3.47-1.7 3.47-3.73-.07-3.06-3.3-4.6-6.7-6.12z" stroke="#000" stroke-opacity="0" fill="#fff"/><g filter="url(#Q)"><path d="M-913.58-762.47a20 20 0 0 1 20-20h260a20 20 0 0 1 20 20v270a20 20 0 0 1-20 20h-260a20 20 0 0 1-20-20z" stroke="#747474" stroke-width="3" fill="#f2f3f5"/><path d="M-798.58-690.05h183.5v3h-183.5zM-912.08-551.7h297v39.23h-297z" fill="#cbc2a3"/><use xlink:href="#R" transform="matrix(1,0,0,1,-798.5833333333334,-751.892) translate(0 19.918)"/><use xlink:href="#S" transform="matrix(1,0,0,1,-798.5833333333334,-751.892) translate(0 48.122)"/><use xlink:href="#T" transform="matrix(1,0,0,1,-798.5833333333334,-672.048) translate(0 15.265)"/><use xlink:href="#K" transform="matrix(1,0,0,1,-798.5833333333334,-672.048) translate(49.214999999999996 15.265)"/><g><use xlink:href="#U" transform="matrix(1,0,0,1,-798.5833333333334,-637.818) translate(0 15.265)"/><use xlink:href="#M" transform="matrix(1,0,0,1,-798.5833333333334,-637.818) translate(30.555000000000003 15.265)"/></g><g><use xlink:href="#N" transform="matrix(1,0,0,1,-893.5833333333334,-541.7) translate(52.1875 15.265)"/><use xlink:href="#O" transform="matrix(1,0,0,1,-893.5833333333334,-541.7) translate(135.46749999999997 15.265)"/><use xlink:href="#P" transform="matrix(1,0,0,1,-893.5833333333334,-541.7) translate(162.5125 15.265)"/></g></g><path d="M-818.58-724.97c0 20.7-16.8 37.5-37.5 37.5s-37.5-16.8-37.5-37.5 16.8-37.5 37.5-37.5 37.5 16.8 37.5 37.5z" stroke="#000" stroke-opacity="0" fill="#83b6ff"/><path d="M-864.32-723.25c-1.2-1.78-1.78-3.82-1.78-6.12 0-3.9 1.62-7.13 4.17-9.1-.85-1.53-2.55-2.63-4.76-2.63-3.74 0-5.85 3.07-5.85 6.56 0 1.86.58 3.47 1.86 4.6.7.65 1.28 1.52 1.28 2.36 0 .84-.34 1.7-2.47 2.63-3.04 1.37-5.85 3.24-5.93 6.04.08 1.85 1.27 3.3 3.07 3.3h2.8c.42 0 .84-.25 1.1-.68 1.36-2.45 3.9-3.98 6.03-5.1.77-.34.94-1.28.5-1.87zM-839.52-724.95c-2.13-.92-2.47-1.7-2.47-2.63 0-.94.6-1.78 1.3-2.37 1.27-1.2 1.86-2.73 1.86-4.6 0-3.5-2.05-6.55-5.88-6.55-2.2 0-3.9 1.1-4.84 2.63 2.55 1.97 4.16 5.2 4.16 9.1 0 2.3-.58 4.34-1.77 6.13-.43.68-.17 1.52.5 1.86 2.13 1.02 4.68 2.65 6.04 5.1.27.43.68.68 1.1.68h2.82c1.78 0 2.97-1.45 2.97-3.3.08-2.82-2.73-4.68-5.8-6.05z" stroke="#000" stroke-opacity="0" fill="#fff"/><path d="M-850.02-718.77c-2.32-1.02-2.74-1.96-2.74-2.9 0-1 .7-1.93 1.46-2.62 1.35-1.26 2.1-3.06 2.1-5.1 0-3.8-2.28-7.12-6.43-7.12-4.16 0-6.45 3.3-6.45 7.12 0 2.04.76 3.84 2.12 5.1.76.78 1.45 1.72 1.45 2.63 0 1.02-.36 1.88-2.74 2.9-3.4 1.43-6.62 3.06-6.7 6.12 0 2.02 1.53 3.73 3.48 3.73h17.66c1.94 0 3.47-1.7 3.47-3.73-.08-3.06-3.3-4.6-6.7-6.12z" stroke="#000" stroke-opacity="0" fill="#fff"/><g filter="url(#V)"><path d="M-1482.33-380a20 20 0 0 1 20-20h260a20 20 0 0 1 20 20v320a20 20 0 0 1-20 20h-260a20 20 0 0 1-20-20z" stroke="#747474" stroke-width="3" fill="#f2f3f5"/><path d="M-1367.33-321.68h183.5v3h-183.5zM-1480.83-119.23h297V-80h-297z" fill="#54c45e"/><use xlink:href="#W" transform="matrix(1,0,0,1,-1367.333333333333,-355.32) translate(0 20.02)"/><use xlink:href="#X" transform="matrix(1,0,0,1,-1367.333333333333,-355.32) translate(68.2 20.02)"/><use xlink:href="#Y" transform="matrix(1,0,0,1,-1367.333333333333,-303.68) translate(0 15.265)"/><use xlink:href="#M" transform="matrix(1,0,0,1,-1367.333333333333,-303.68) translate(88.215 15.265)"/><g><use xlink:href="#Z" transform="matrix(1,0,0,1,-1367.333333333333,-269.45000000000005) translate(0 15.188499999999998)"/><use xlink:href="#aa" transform="matrix(1,0,0,1,-1367.333333333333,-269.45000000000005) translate(75.51 15.188499999999998)"/><use xlink:href="#ab" transform="matrix(1,0,0,1,-1367.333333333333,-269.45000000000005) translate(0 36.341499999999996)"/></g><g><use xlink:href="#ac" transform="matrix(1,0,0,1,-1462.333333333333,-109.23000000000016) translate(78.86500000000001 15.265)"/><use xlink:href="#ad" transform="matrix(1,0,0,1,-1462.333333333333,-109.23000000000016) translate(159.01 15.265)"/></g></g><path d="M-1387.33-342.5c0 20.7-16.8 37.5-37.5 37.5s-37.5-16.8-37.5-37.5 16.8-37.5 37.5-37.5 37.5 16.8 37.5 37.5z" stroke="#000" stroke-opacity="0" fill="#4bc076"/><path d="M-1426.22-359.5l-1.57-1.56c-.46-.45-1.1-.45-1.55 0l-9.74 9.64-3.94-3.86c-.47-.46-1.1-.46-1.56 0l-1.56 1.56c-.47.46-.47 1.1 0 1.56l5.4 5.42c.48.46 1.03.64 1.57.64.56 0 1.12-.18 1.57-.64l11.4-11.2c.35-.37.35-1.1 0-1.56zM-1403.8-349h-19.2c-.82 0-1.46-.64-1.46-1.46v-2.94c0-.83.64-1.48 1.46-1.48h19.2c.83 0 1.47.65 1.47 1.48v2.94c0 .82-.64 1.46-1.46 1.46zM-1403.8-335.87h-23.62c-.83 0-1.46-.64-1.46-1.47v-2.94c0-.83.63-1.47 1.46-1.47h23.63c.83 0 1.47.64 1.47 1.47v2.94c0 .83-.64 1.47-1.46 1.47zM-1436.32-335.87h-2.94c-.83 0-1.47-.64-1.47-1.47v-2.94c0-.83.64-1.47 1.47-1.47h2.94c.82 0 1.47.64 1.47 1.47v2.94c.1.83-.65 1.47-1.47 1.47zM-1436.32-322.75h-2.94c-.83 0-1.47-.64-1.47-1.46v-2.95c0-.83.64-1.48 1.47-1.48h2.94c.82 0 1.47.65 1.47 1.48v2.94c.1.8-.65 1.45-1.47 1.45zM-1403.8-322.75h-23.62c-.83 0-1.46-.64-1.46-1.46v-2.95c0-.83.63-1.48 1.46-1.48h23.63c.83 0 1.47.65 1.47 1.48v2.94c0 .8-.64 1.45-1.46 1.45z" stroke="#000" stroke-opacity="0" fill="#fff"/><g filter="url(#V)"><path d="M-724-380a20 20 0 0 1 20-20h260a20 20 0 0 1 20 20v320a20 20 0 0 1-20 20h-260a20 20 0 0 1-20-20z" stroke="#747474" stroke-width="3" fill="#f2f3f5"/><path d="M-609-321.68h183.5v3H-609zM-722.5-119.23h297V-80h-297z" fill="#54c45e"/><use xlink:href="#ae" transform="matrix(1,0,0,1,-609,-355.32) translate(0 20.02)"/><use xlink:href="#X" transform="matrix(1,0,0,1,-609,-355.32) translate(80.46 20.02)"/><use xlink:href="#af" transform="matrix(1,0,0,1,-609,-303.68) translate(0 15.265)"/><use xlink:href="#ag" transform="matrix(1,0,0,1,-609,-303.68) translate(42.25499999999999 15.265)"/><g><use xlink:href="#ah" transform="matrix(1,0,0,1,-609,-269.45000000000005) translate(0 15.188499999999998)"/><use xlink:href="#ab" transform="matrix(1,0,0,1,-609,-269.45000000000005) translate(0 36.341499999999996)"/></g><g><use xlink:href="#ac" transform="matrix(1,0,0,1,-704,-109.23000000000016) translate(78.86500000000001 15.265)"/><use xlink:href="#ad" transform="matrix(1,0,0,1,-704,-109.23000000000016) translate(159.01 15.265)"/></g></g><path d="M-629-342.5c0 20.7-16.8 37.5-37.5 37.5s-37.5-16.8-37.5-37.5 16.8-37.5 37.5-37.5 37.5 16.8 37.5 37.5z" stroke="#000" stroke-opacity="0" fill="#4bc076"/><path d="M-667.9-359.5l-1.55-1.56c-.48-.45-1.1-.45-1.57 0l-9.74 9.64-3.94-3.86c-.47-.46-1.1-.46-1.56 0l-1.57 1.56c-.47.46-.47 1.1 0 1.56l5.4 5.42c.48.46 1.04.64 1.57.64.56 0 1.1-.18 1.56-.64l11.4-11.2c.36-.37.36-1.1 0-1.56zM-645.46-349h-19.2c-.82 0-1.47-.64-1.47-1.46v-2.94c0-.83.65-1.48 1.47-1.48h19.2c.82 0 1.46.65 1.46 1.48v2.94c0 .82-.64 1.46-1.46 1.46zM-645.46-335.87h-23.63c-.8 0-1.45-.64-1.45-1.47v-2.94c0-.83.64-1.47 1.46-1.47h23.64c.82 0 1.46.64 1.46 1.47v2.94c0 .83-.64 1.47-1.46 1.47zM-678-335.87h-2.93c-.83 0-1.47-.64-1.47-1.47v-2.94c0-.83.64-1.47 1.47-1.47h2.94c.83 0 1.48.64 1.48 1.47v2.94c.1.83-.65 1.47-1.47 1.47zM-678-322.75h-2.93c-.83 0-1.47-.64-1.47-1.46v-2.95c0-.83.64-1.48 1.47-1.48h2.94c.83 0 1.48.65 1.48 1.48v2.94c.1.8-.65 1.45-1.47 1.45zM-645.46-322.75h-23.63c-.8 0-1.45-.64-1.45-1.46v-2.95c0-.83.64-1.48 1.46-1.48h23.64c.82 0 1.46.65 1.46 1.48v2.94c0 .8-.64 1.45-1.46 1.45z" stroke="#000" stroke-opacity="0" fill="#fff"/><path d="M-1100-1153a12 12 0 0 1 12-12h696a12 12 0 0 1 12 12v256a12 12 0 0 1-12 12h-696a12 12 0 0 1-12-12z" stroke="#000" stroke-opacity="0" stroke-width="2" fill-opacity="0"/><path d="M-1008.7-1050.02c0 9.33-7.57 16.9-16.9 16.9-9.34 0-16.9-7.57-16.9-16.9 0-9.34 7.56-16.9 16.9-16.9 9.33 0 16.9 7.56 16.9 16.9z" stroke="#000" stroke-opacity="0" fill="#83b6ff"/><path d="M-1029.32-1049.25c-.54-.8-.8-1.72-.8-2.76 0-1.76.73-3.22 1.88-4.1-.38-.7-1.15-1.2-2.15-1.2-1.68 0-2.63 1.38-2.63 2.96 0 .84.27 1.56.84 2.07.32.3.58.7.58 1.07 0 .38-.15.77-1.1 1.18-1.38.63-2.65 1.46-2.7 2.73.05.85.58 1.5 1.4 1.5h1.26c.2 0 .37-.1.5-.3.6-1.1 1.75-1.8 2.7-2.3.36-.16.44-.58.24-.85zM-1018.14-1050.02c-.95-.4-1.1-.76-1.1-1.18 0-.43.26-.8.57-1.07.57-.54.84-1.23.84-2.07 0-1.58-.92-2.96-2.65-2.96-1 0-1.76.5-2.18 1.2 1.15.88 1.88 2.34 1.88 4.1 0 1.03-.27 1.95-.8 2.75-.2.32-.08.7.22.84.96.45 2.1 1.2 2.72 2.3.12.2.3.3.5.3h1.27c.8 0 1.34-.65 1.34-1.5.04-1.26-1.22-2.1-2.6-2.72z" stroke="#000" stroke-opacity="0" fill="#fff"/><path d="M-1022.87-1047.23c-1.04-.46-1.23-.88-1.23-1.3 0-.45.3-.88.65-1.2.6-.56.96-1.37.96-2.3 0-1.7-1.03-3.2-2.9-3.2-1.88 0-2.9 1.5-2.9 3.2 0 .93.34 1.74.95 2.3.34.36.65.78.65 1.2 0 .45-.15.84-1.23 1.3-1.53.65-2.98 1.38-3.02 2.76 0 .9.7 1.68 1.57 1.68h7.96c.88 0 1.56-.76 1.56-1.67-.03-1.38-1.48-2.08-3-2.76z" stroke="#000" stroke-opacity="0" fill="#fff"/><path d="M-1008.7-995.92c0 9.33-7.57 16.9-16.9 16.9-9.34 0-16.9-7.57-16.9-16.9 0-9.33 7.56-16.9 16.9-16.9 9.33 0 16.9 7.57 16.9 16.9z" stroke="#000" stroke-opacity="0" fill="#65cae4"/><path d="M-1020.57-1000.48c0-3.1-2.23-5.58-5.03-5.58-2.78 0-5.04 2.5-5.04 5.58s2.26 5.58 5.04 5.58c2.8 0 5.03-2.5 5.03-5.58zm5.1 12.68v-.94c0-2.5-2.87-3.97-5.65-5.15l-.26-.1c-.2-.1-.4-.1-.63.03-1.07.67-2.33 1.1-3.64 1.1-1.32 0-2.54-.4-3.64-1.1-.22-.12-.42-.12-.63-.04l-.27.1c-2.7 1.2-5.58 2.7-5.58 5.16v.94c0 1.1.93 2.03 2.03 2.03h16.23c1.1 0 2.04-.94 2.04-2.03z" stroke="#000" stroke-opacity="0" fill="#fff"/><path d="M-1008.7-941.8c0 9.32-7.57 16.9-16.9 16.9-9.34 0-16.9-7.58-16.9-16.9 0-9.35 7.56-16.92 16.9-16.92 9.33 0 16.9 7.58 16.9 16.9z" stroke="#000" stroke-opacity="0" fill="#4bc076"/><path d="M-1026.23-949.48l-.7-.7c-.22-.2-.5-.2-.7 0l-4.4 4.34-1.78-1.73c-.22-.2-.5-.2-.7 0l-.72.7c-.2.2-.2.5 0 .7l2.44 2.45c.2.2.46.3.7.3.25 0 .5-.1.7-.3l5.15-5.05c.16-.17.16-.5 0-.7zM-1016.12-944.74h-8.66c-.37 0-.65-.3-.65-.66v-1.33c0-.37.28-.66.65-.66h8.66c.37 0 .66.3.66.67v1.33c0 .37-.3.66-.66.66zM-1016.12-938.82h-10.65c-.37 0-.66-.3-.66-.66v-1.33c0-.38.3-.67.66-.67h10.65c.37 0 .66.3.66.66v1.3c0 .4-.3.68-.66.68zM-1030.8-938.82h-1.3c-.38 0-.67-.3-.67-.66v-1.33c0-.38.3-.67.66-.67h1.3c.4 0 .68.3.68.66v1.3c.04.4-.3.68-.67.68zM-1030.8-932.9h-1.3c-.38 0-.67-.3-.67-.67v-1.32c0-.37.3-.66.66-.66h1.3c.4 0 .68.3.68.67v1.33c.04.38-.3.67-.67.67zM-1016.12-932.9h-10.65c-.37 0-.66-.3-.66-.67v-1.32c0-.37.3-.66.66-.66h10.65c.37 0 .66.3.66.67v1.33c0 .38-.3.67-.66.67z" stroke="#000" stroke-opacity="0" fill="#fff"/><use xlink:href="#ai" transform="matrix(1,0,0,1,-1045.8937198067633,-1124.4202898550725) translate(0 24.454246579041524)"/><use xlink:href="#aj" transform="matrix(1,0,0,1,-1045.8937198067633,-1124.4202898550725) translate(74.92157617244196 24.454246579041524)"/><use xlink:href="#ak" transform="matrix(1,0,0,1,-985.024154589372,-1070.3140096618358) translate(0 24.175882929877705)"/><use xlink:href="#al" transform="matrix(1,0,0,1,-985.024154589372,-1070.3140096618358) translate(91.38678602048186 24.175882929877705)"/><use xlink:href="#am" transform="matrix(1,0,0,1,-985.024154589372,-1070.3140096618358) translate(122.56351472682962 24.175882929877705)"/><use xlink:href="#an" transform="matrix(1,0,0,1,-985.024154589372,-1070.3140096618358) translate(176.09980355226114 24.175882929877705)"/><use xlink:href="#ao" transform="matrix(1,0,0,1,-985.024154589372,-1070.3140096618358) translate(186.76809040646455 24.175882929877705)"/><use xlink:href="#ap" transform="matrix(1,0,0,1,-985.024154589372,-1070.3140096618358) translate(224.7647285173259 24.175882929877705)"/><use xlink:href="#aq" transform="matrix(1,0,0,1,-985.024154589372,-1070.3140096618358) translate(250.04710695262978 24.175882929877705)"/><use xlink:href="#ar" transform="matrix(1,0,0,1,-985.024154589372,-1070.3140096618358) translate(292.91510892385793 24.175882929877705)"/><use xlink:href="#as" transform="matrix(1,0,0,1,-985.024154589372,-1016.207729468599) translate(0 24.175882929877705)"/><use xlink:href="#ak" transform="matrix(1,0,0,1,-985.024154589372,-962.1014492753623) translate(0 24.175882929877705)"/><use xlink:href="#at" transform="matrix(1,0,0,1,-985.024154589372,-962.1014492753623) translate(91.38678602048186 24.175882929877705)"/><g filter="url(#V)"><path d="M-1103.17-380a20 20 0 0 1 20-20h260a20 20 0 0 1 20 20v320a20 20 0 0 1-20 20h-260a20 20 0 0 1-20-20z" stroke="#747474" stroke-width="3" fill="#f2f3f5"/><path d="M-988.17-321.68h183.5v3h-183.5zM-1101.67-119.23h297V-80h-297z" fill="#54c45e"/><use xlink:href="#au" transform="matrix(1,0,0,1,-988.1666666666665,-355.32) translate(0 20.02)"/><use xlink:href="#X" transform="matrix(1,0,0,1,-988.1666666666665,-355.32) translate(68.2 20.02)"/><use xlink:href="#av" transform="matrix(1,0,0,1,-988.1666666666665,-303.68) translate(0 15.265)"/><use xlink:href="#aw" transform="matrix(1,0,0,1,-988.1666666666665,-303.68) translate(58.47 15.265)"/><use xlink:href="#ab" transform="matrix(1,0,0,1,-988.1666666666665,-303.68) translate(91.695 15.265)"/><g><use xlink:href="#ac" transform="matrix(1,0,0,1,-1083.1666666666665,-109.23000000000016) translate(78.86500000000001 15.265)"/><use xlink:href="#ad" transform="matrix(1,0,0,1,-1083.1666666666665,-109.23000000000016) translate(159.01 15.265)"/></g></g><path d="M-1008.17-342.5c0 20.7-16.8 37.5-37.5 37.5s-37.5-16.8-37.5-37.5 16.8-37.5 37.5-37.5 37.5 16.8 37.5 37.5z" stroke="#000" stroke-opacity="0" fill="#4bc076"/><path d="M-1047.06-359.5l-1.56-1.56c-.47-.45-1.1-.45-1.56 0l-9.74 9.64-3.95-3.86c-.47-.46-1.1-.46-1.56 0l-1.56 1.56c-.46.46-.46 1.1 0 1.56l5.4 5.42c.48.46 1.04.64 1.57.64.56 0 1.1-.18 1.57-.64l11.4-11.2c.35-.37.35-1.1 0-1.56zM-1024.63-349h-19.2c-.82 0-1.46-.64-1.46-1.46v-2.94c0-.83.65-1.48 1.47-1.48h19.2c.82 0 1.46.65 1.46 1.48v2.94c0 .82-.64 1.46-1.46 1.46zM-1024.63-335.87h-23.63c-.82 0-1.46-.64-1.46-1.47v-2.94c0-.83.64-1.47 1.46-1.47h23.63c.83 0 1.46.64 1.46 1.47v2.94c0 .83-.63 1.47-1.46 1.47zM-1057.16-335.87h-2.93c-.83 0-1.47-.64-1.47-1.47v-2.94c0-.83.64-1.47 1.47-1.47h2.94c.83 0 1.48.64 1.48 1.47v2.94c.08.83-.65 1.47-1.48 1.47zM-1057.16-322.75h-2.93c-.83 0-1.47-.64-1.47-1.46v-2.95c0-.83.64-1.48 1.47-1.48h2.94c.83 0 1.48.65 1.48 1.48v2.94c.08.8-.65 1.45-1.48 1.45zM-1024.63-322.75h-23.63c-.82 0-1.46-.64-1.46-1.46v-2.95c0-.83.64-1.48 1.46-1.48h23.63c.83 0 1.46.65 1.46 1.48v2.94c0 .8-.63 1.45-1.46 1.45z" stroke="#000" stroke-opacity="0" fill="#fff"/><g filter="url(#u)"><path d="M-724 50a20 20 0 0 1 20-20h260a20 20 0 0 1 20 20v238.24a20 20 0 0 1-20 20h-260a20 20 0 0 1-20-20z" stroke="#747474" stroke-width="3" fill="#f2f3f5"/><path d="M-609 108.32h183.5v3H-609zM-722.5 229h297v39.24h-297z" fill="#e5e5e5"/><use xlink:href="#ax" transform="matrix(1,0,0,1,-609,74.6799999999999) translate(0 20.02)"/><use xlink:href="#ay" transform="matrix(1,0,0,1,-609,74.6799999999999) translate(63.92 20.02)"/><use xlink:href="#az" transform="matrix(1,0,0,1,-609,126.31999999999988) translate(0 15.265)"/><use xlink:href="#H" transform="matrix(1,0,0,1,-609,126.31999999999988) translate(60.345 15.265)"/><use xlink:href="#x" transform="matrix(1,0,0,1,-609,160.54999999999987) translate(0 15.265)"/><g><use xlink:href="#C" transform="matrix(1,0,0,1,-609,194.77999999999986) translate(0 15.265)"/><use xlink:href="#aA" transform="matrix(1,0,0,1,-609,194.77999999999986) translate(49.31999999999999 15.265)"/></g><g><use xlink:href="#y" transform="matrix(1,0,0,1,-704,239.0099999999999) translate(114.205 15.265)"/></g></g><path d="M-629 87.5c0 20.7-16.8 37.5-37.5 37.5S-704 108.2-704 87.5-687.2 50-666.5 50-629 66.8-629 87.5z" stroke="#000" stroke-opacity="0" fill="#65cae4"/><path d="M-655.34 77.38c0-6.84-4.95-12.38-11.16-12.38-6.16 0-11.16 5.53-11.16 12.38 0 6.84 5 12.37 11.16 12.37 6.2 0 11.16-5.53 11.16-12.38zM-644 105.5v-2.07c0-5.54-6.4-8.82-12.55-11.43l-.6-.27c-.44-.18-.9-.18-1.38.1-2.35 1.48-5.13 2.42-8.06 2.42-2.9 0-5.62-.86-8.04-2.43-.5-.27-.95-.27-1.4-.1l-.6.28c-5.97 2.6-12.36 5.98-12.36 11.43v2.07c0 2.43 2.07 4.5 4.5 4.5h36c2.43 0 4.5-2.07 4.5-4.5z" stroke="#000" stroke-opacity="0" fill="#fff"/><path d="M-1196.58 388.77v118.37l77.08-59.2zM-1355.06 447.14v-58.38h-77.08zM-1432.14 507.14h77.08v-60zM-1355.06 388.76h158.48v118.38h-158.48z" fill="#f76350"/><use xlink:href="#aB" transform="matrix(1,0,0,1,-1350.0559687978355,393.7650000000352) translate(21.506172839506178 58.65277777777778)"/><use xlink:href="#aC" transform="matrix(1,0,0,1,-1350.0559687978355,393.7650000000352) translate(58.543209876543216 58.65277777777778)"/><path d="M-1460.7 388.77v120l77.1-60z" fill="#f76350"/><path d="M-1619.17 388.76h158.48v120h-158.47z" fill="#f76350"/><use xlink:href="#aD" transform="matrix(1,0,0,1,-1614.1666666666279,393.76500000003523) translate(33.82098765432099 45.27777777777778)"/><use xlink:href="#aE" transform="matrix(1,0,0,1,-1614.1666666666279,393.76500000003523) translate(36.29012345679012 71.94444444444446)"/><path class="lucid-link lucid-hotspot lucid-overlay-hotspot" d="M-1619.17 388.76h158.48v120h-158.47z" fill="none"/><g><path d="M-932.47 388.76v118.38l77.08-59.2z" fill="#f76350"/></g><g><path d="M-1090.95 447.14v-58.38h-77.08z" fill="#f76350"/></g><g><path d="M-1168.03 507.14h77.08v-60z" fill="#f76350"/></g><path d="M-1090.94 388.76h158.47v118.38h-158.47z" fill="#f76350"/><g><use xlink:href="#aF" transform="matrix(1,0,0,1,-1085.9452709290438,393.76500000000016) translate(15.827160493827165 58.65277777777778)"/><use xlink:href="#aC" transform="matrix(1,0,0,1,-1085.9452709290438,393.76500000000016) translate(64.22222222222223 58.65277777777778)"/></g><g><path d="M-668.36 388.76v118.38l77.08-59.2z" fill="#f76350"/></g><g><path d="M-826.83 447.14v-58.38h-77.1z" fill="#f76350"/></g><g><path d="M-903.92 507.14h77.1v-60z" fill="#f76350"/></g><path d="M-826.84 388.76h158.48v118.38h-158.48z" fill="#f76350"/><g><use xlink:href="#aG" transform="matrix(1,0,0,1,-821.8345730602516,393.7650000000352) translate(1.7530864197530889 58.65277777777778)"/><use xlink:href="#aC" transform="matrix(1,0,0,1,-821.8345730602516,393.7650000000352) translate(78.29629629629629 58.65277777777778)"/></g><g><path d="M-404.25 388.77v118.37l77.08-59.2z" fill="#f76350"/></g><g><path d="M-562.72 447.14v-58.38h-77.1z" fill="#f76350"/></g><g><path d="M-639.8 507.14h77.08v-60z" fill="#f76350"/></g><path d="M-562.72 388.76h158.47v118.38h-158.47z" fill="#f76350"/><g><use xlink:href="#aH" transform="matrix(1,0,0,1,-557.7238751914595,393.7650000000355) translate(4.901234567901241 58.65277777777778)"/><use xlink:href="#aC" transform="matrix(1,0,0,1,-557.7238751914595,393.7650000000355) translate(75.14814814814814 58.65277777777778)"/></g><path d="M-1332.33-402v-265.18a6 6 0 0 1 6-6h15.7" stroke="#3a414a" fill="none"/><path d="M-1331.83-401.5h-1v-.5h1z" stroke="#3a414a" stroke-width=".05" fill="#3a414a"/><path d="M-1295.87-673.18l-14.26 4.63v-9.27z" stroke="#3a414a" fill="#3a414a"/><path d="M-953.17-402v-233.84a6 6 0 0 0-6-6h-15.7" stroke="#3a414a" fill="none"/><path d="M-952.67-401.5h-1v-.5h1z" stroke="#3a414a" stroke-width=".05" fill="#3a414a"/><path d="M-989.63-641.84l14.26-4.63v9.27z" stroke="#3a414a" fill="#3a414a"/><path d="M-422-220h33.5a6 6 0 0 1 6 6v345.82a6 6 0 0 1-6 6h-17.62" stroke="#3a414a" fill="none"/><path d="M-422-219.5h-.5v-1h.5z" stroke="#3a414a" stroke-width=".05" fill="#3a414a"/><path d="M-420.88 137.82l14.26-4.63v9.26z" stroke="#3a414a" fill="#3a414a"/><defs><path fill="#3a414a" d="M30-248c87 1 191-15 191 75 0 78-77 80-158 76V0H30v-248zm33 125c57 0 124 11 124-50 0-59-68-47-124-48v98" id="aI"/><path fill="#3a414a" d="M100-194c63 0 86 42 84 106H49c0 40 14 67 53 68 26 1 43-12 49-29l28 8c-11 28-37 45-77 45C44 4 14-33 15-96c1-61 26-98 85-98zm52 81c6-60-76-77-97-28-3 7-6 17-6 28h103" id="aJ"/><path fill="#3a414a" d="M114-163C36-179 61-72 57 0H25l-1-190h30c1 12-1 29 2 39 6-27 23-49 58-41v29" id="aK"/><path fill="#3a414a" d="M135-143c-3-34-86-38-87 0 15 53 115 12 119 90S17 21 10-45l28-5c4 36 97 45 98 0-10-56-113-15-118-90-4-57 82-63 122-42 12 7 21 19 24 35" id="aL"/><path fill="#3a414a" d="M100-194c62-1 85 37 85 99 1 63-27 99-86 99S16-35 15-95c0-66 28-99 85-99zM99-20c44 1 53-31 53-75 0-43-8-75-51-75s-53 32-53 75 10 74 51 75" id="aM"/><path fill="#3a414a" d="M117-194c89-4 53 116 60 194h-32v-121c0-31-8-49-39-48C34-167 62-67 57 0H25l-1-190h30c1 10-1 24 2 32 11-22 29-35 61-36" id="aN"/><path fill="#3a414a" d="M141-36C126-15 110 5 73 4 37 3 15-17 15-53c-1-64 63-63 125-63 3-35-9-54-41-54-24 1-41 7-42 31l-33-3c5-37 33-52 76-52 45 0 72 20 72 64v82c-1 20 7 32 28 27v20c-31 9-61-2-59-35zM48-53c0 20 12 33 32 33 41-3 63-29 60-74-43 2-92-5-92 41" id="aO"/><g id="a"><use transform="matrix(0.06172839506172839,0,0,0.06172839506172839,0,0)" xlink:href="#aI"/><use transform="matrix(0.06172839506172839,0,0,0.06172839506172839,14.814814814814813,0)" xlink:href="#aJ"/><use transform="matrix(0.06172839506172839,0,0,0.06172839506172839,27.160493827160494,0)" xlink:href="#aK"/><use transform="matrix(0.06172839506172839,0,0,0.06172839506172839,34.50617283950617,0)" xlink:href="#aL"/><use transform="matrix(0.06172839506172839,0,0,0.06172839506172839,45.61728395061728,0)" xlink:href="#aM"/><use transform="matrix(0.06172839506172839,0,0,0.06172839506172839,57.962962962962955,0)" xlink:href="#aN"/><use transform="matrix(0.06172839506172839,0,0,0.06172839506172839,70.30864197530863,0)" xlink:href="#aO"/></g><path fill="#3a414a" d="M185-189c-5-48-123-54-124 2 14 75 158 14 163 119 3 78-121 87-175 55-17-10-28-26-33-46l33-7c5 56 141 63 141-1 0-78-155-14-162-118-5-82 145-84 179-34 5 7 8 16 11 25" id="aP"/><path fill="#3a414a" d="M59-47c-2 24 18 29 38 22v24C64 9 27 4 27-40v-127H5v-23h24l9-43h21v43h35v23H59v120" id="aQ"/><path fill="#3a414a" d="M84 4C-5 8 30-112 23-190h32v120c0 31 7 50 39 49 72-2 45-101 50-169h31l1 190h-30c-1-10 1-25-2-33-11 22-28 36-60 37" id="aR"/><path fill="#3a414a" d="M115-194c55 1 70 41 70 98S169 2 115 4C84 4 66-9 55-30l1 105H24l-1-265h31l2 30c10-21 28-34 59-34zm-8 174c40 0 45-34 45-75s-6-73-45-74c-42 0-51 32-51 76 0 43 10 73 51 73" id="aS"/><g id="b"><use transform="matrix(0.06172839506172839,0,0,0.06172839506172839,0,0)" xlink:href="#aP"/><use transform="matrix(0.06172839506172839,0,0,0.06172839506172839,14.814814814814813,0)" xlink:href="#aJ"/><use transform="matrix(0.06172839506172839,0,0,0.06172839506172839,27.160493827160494,0)" xlink:href="#aQ"/><use transform="matrix(0.06172839506172839,0,0,0.06172839506172839,33.333333333333336,0)" xlink:href="#aR"/><use transform="matrix(0.06172839506172839,0,0,0.06172839506172839,45.67901234567901,0)" xlink:href="#aS"/></g><path fill="#3a414a" d="M210-169c-67 3-38 105-44 169h-31v-121c0-29-5-50-35-48C34-165 62-65 56 0H25l-1-190h30c1 10-1 24 2 32 10-44 99-50 107 0 11-21 27-35 58-36 85-2 47 119 55 194h-31v-121c0-29-5-49-35-48" id="aT"/><path fill="#3a414a" d="M24-231v-30h32v30H24zM24 0v-190h32V0H24" id="aU"/><g id="c"><use transform="matrix(0.06172839506172839,0,0,0.06172839506172839,0,0)" xlink:href="#aI"/><use transform="matrix(0.06172839506172839,0,0,0.06172839506172839,14.814814814814813,0)" xlink:href="#aJ"/><use transform="matrix(0.06172839506172839,0,0,0.06172839506172839,27.160493827160494,0)" xlink:href="#aK"/><use transform="matrix(0.06172839506172839,0,0,0.06172839506172839,34.50617283950617,0)" xlink:href="#aT"/><use transform="matrix(0.06172839506172839,0,0,0.06172839506172839,52.96296296296296,0)" xlink:href="#aU"/><use transform="matrix(0.06172839506172839,0,0,0.06172839506172839,57.839506172839506,0)" xlink:href="#aL"/><use transform="matrix(0.06172839506172839,0,0,0.06172839506172839,68.95061728395062,0)" xlink:href="#aL"/><use transform="matrix(0.06172839506172839,0,0,0.06172839506172839,80.06172839506173,0)" xlink:href="#aU"/><use transform="matrix(0.06172839506172839,0,0,0.06172839506172839,84.93827160493828,0)" xlink:href="#aM"/><use transform="matrix(0.06172839506172839,0,0,0.06172839506172839,97.28395061728396,0)" xlink:href="#aN"/></g><g id="d"><use transform="matrix(0.06172839506172839,0,0,0.06172839506172839,0,0)" xlink:href="#aP"/><use transform="matrix(0.06172839506172839,0,0,0.06172839506172839,14.814814814814813,0)" xlink:href="#aJ"/><use transform="matrix(0.06172839506172839,0,0,0.06172839506172839,27.160493827160494,0)" xlink:href="#aQ"/><use transform="matrix(0.06172839506172839,0,0,0.06172839506172839,33.333333333333336,0)" xlink:href="#aL"/></g><path fill="#3a414a" d="M232-93c-1 65-40 97-104 97C67 4 28-28 28-90v-158h33c8 89-33 224 67 224 102 0 64-133 71-224h33v155" id="aV"/><g id="e"><use transform="matrix(0.06172839506172839,0,0,0.06172839506172839,0,0)" xlink:href="#aV"/><use transform="matrix(0.06172839506172839,0,0,0.06172839506172839,15.987654320987653,0)" xlink:href="#aL"/><use transform="matrix(0.06172839506172839,0,0,0.06172839506172839,27.098765432098766,0)" xlink:href="#aJ"/><use transform="matrix(0.06172839506172839,0,0,0.06172839506172839,39.44444444444444,0)" xlink:href="#aK"/><use transform="matrix(0.06172839506172839,0,0,0.06172839506172839,46.79012345679012,0)" xlink:href="#aL"/></g><path fill="#032D60" d="M520-635H179v242h302v72H179V0H90v-708h430v73" id="aW"/><path fill="#032D60" d="M288-523c162-3 241 129 226 299H136c6 100 61 171 167 170 70-1 110-20 156-50l38 55c-54 38-112 62-199 63C141 16 48-99 50-257c3-159 80-263 238-266zm145 233c-2-96-49-168-146-168-96 0-149 75-152 168h298" id="aX"/><path fill="#032D60" d="M206 14C109 15 40-41 42-139c1-169 156-177 340-175 7-97-33-143-126-142-54 0-105 14-153 43l-30-57c57-35 120-53 188-53 141 0 204 63 206 202 1 110-5 220 7 321h-78c-5-29-7-52-7-69h-3c-38 54-89 83-180 83zm22-67c89-2 148-53 154-135v-66s-251-9-252 110c0 59 38 91 98 91" id="aY"/><path fill="#032D60" d="M328 1C218 40 105-8 105-130v-314H15v-55l89-10v-125l86-30v155h135v65H190v307c-6 76 60 95 125 75" id="aZ"/><path fill="#032D60" d="M270 14C144 14 79-74 79-197v-312h86v300c0 89 37 155 125 155 95 0 154-86 154-183v-272h85c3 170-7 349 7 509h-81c-5-20-3-53-9-81-37 63-95 95-176 95" id="ba"/><path fill="#032D60" d="M353-447c-118-18-182 64-182 174V0H86c-3-170 7-349-7-509h81c5 22 3 54 9 81 32-70 98-104 189-92" id="bb"/><g id="f"><use transform="matrix(0.036,0,0,0.036,0,0)" xlink:href="#aW"/><use transform="matrix(0.036,0,0,0.036,17.567999999999998,0)" xlink:href="#aX"/><use transform="matrix(0.036,0,0,0.036,37.90800000000001,0)" xlink:href="#aY"/><use transform="matrix(0.036,0,0,0.036,57.348,0)" xlink:href="#aZ"/><use transform="matrix(0.036,0,0,0.036,70.2,0)" xlink:href="#ba"/><use transform="matrix(0.036,0,0,0.036,92.34,0)" xlink:href="#bb"/><use transform="matrix(0.036,0,0,0.036,104.76,0)" xlink:href="#aX"/></g><path fill="#032D60" d="M834 0h-87c-1-201 4-407 0-605L493 0h-67c-85-201-167-406-255-605l2 605H90v-708h131c81 196 158 395 241 589l240-589h132V0" id="bc"/><path fill="#032D60" d="M323-452c-91 0-152 70-152 160V0H86c-3-170 7-349-7-509h81c5 17 3 46 9 72 33-51 94-86 177-86 122 0 189 80 189 194V0h-85v-312c-1-82-40-140-127-140" id="bd"/><path fill="#032D60" d="M247 257c-129 0-227-40-227-153C20 28 64-4 125-36c-33-15-49-37-49-67 0-43 35-68 74-79-60-24-100-74-100-157 0-151 154-213 302-170h177v68l-113-12c32 23 55 66 54 122 0 115-87 172-209 172-52 0-107 9-107 49 0 27 32 41 97 42 94 1 163 14 205 38s63 59 63 107c0 132-124 180-272 180zM129-341c1 79 47 121 131 121 87 0 131-39 131-118-1-77-49-121-131-121-76 0-132 44-131 118zm121 534c101 0 185-23 185-109 0-54-41-66-99-78-36-7-85-10-148-10-49 23-85 46-85 104 0 62 49 93 147 93" id="be"/><path fill="#032D60" d="M315-453c-88 0-144 74-144 161V0H86c-3-170 7-349-7-509h81c5 17 3 46 9 72 30-48 90-86 168-86 89 0 140 43 168 103 32-60 90-104 179-103 122 1 187 78 187 197V0h-85v-314c-1-78-37-142-120-139-97 3-146 77-146 174V0h-85v-316c-1-77-39-137-120-137" id="bf"/><g id="g"><use transform="matrix(0.036,0,0,0.036,0,0)" xlink:href="#bc"/><use transform="matrix(0.036,0,0,0.036,33.227999999999994,0)" xlink:href="#aY"/><use transform="matrix(0.036,0,0,0.036,52.88399999999999,0)" xlink:href="#bd"/><use transform="matrix(0.036,0,0,0.036,74.62799999999997,0)" xlink:href="#aY"/><use transform="matrix(0.036,0,0,0.036,94.28399999999999,0)" xlink:href="#be"/><use transform="matrix(0.036,0,0,0.036,113.79599999999999,0)" xlink:href="#aX"/><use transform="matrix(0.036,0,0,0.036,134.136,0)" xlink:href="#bf"/><use transform="matrix(0.036,0,0,0.036,168.33599999999998,0)" xlink:href="#aX"/><use transform="matrix(0.036,0,0,0.036,188.676,0)" xlink:href="#bd"/><use transform="matrix(0.036,0,0,0.036,210.56399999999996,0)" xlink:href="#aZ"/></g><path fill="#032D60" d="M90-708h102c138 196 274 394 414 588l-2-588h83V0H585C447-196 311-394 171-588l2 588H90v-708" id="bg"/><path fill="#032D60" d="M172 0H87v-509h85V0zm-42-631c-37 0-55-19-56-52 0-36 19-54 56-54s55 18 55 54c-1 33-19 52-55 52" id="bh"/><path fill="#032D60" d="M293 0h-95L4-509h91L246-85h3l146-424h88" id="bi"/><g id="h"><use transform="matrix(0.014,0,0,0.014,0,0)" xlink:href="#bg"/><use transform="matrix(0.014,0,0,0.014,10.864,0)" xlink:href="#aY"/><use transform="matrix(0.014,0,0,0.014,18.424,0)" xlink:href="#aZ"/><use transform="matrix(0.014,0,0,0.014,23.422,0)" xlink:href="#bh"/><use transform="matrix(0.014,0,0,0.014,27.034,0)" xlink:href="#bi"/><use transform="matrix(0.014,0,0,0.014,33.768,0)" xlink:href="#aX"/></g><g id="i"><use transform="matrix(0.014,0,0,0.014,0,0)" xlink:href="#aW"/><use transform="matrix(0.014,0,0,0.014,6.832,0)" xlink:href="#aX"/><use transform="matrix(0.014,0,0,0.014,14.742,0)" xlink:href="#aY"/><use transform="matrix(0.014,0,0,0.014,22.302,0)" xlink:href="#aZ"/><use transform="matrix(0.014,0,0,0.014,27.3,0)" xlink:href="#ba"/><use transform="matrix(0.014,0,0,0.014,35.91,0)" xlink:href="#bb"/><use transform="matrix(0.014,0,0,0.014,40.739999999999995,0)" xlink:href="#aX"/></g><g id="j"><use transform="matrix(0.014,0,0,0.014,0,0)" xlink:href="#bc"/><use transform="matrix(0.014,0,0,0.014,12.922,0)" xlink:href="#aY"/><use transform="matrix(0.014,0,0,0.014,20.566000000000003,0)" xlink:href="#bd"/><use transform="matrix(0.014,0,0,0.014,29.022000000000002,0)" xlink:href="#aY"/><use transform="matrix(0.014,0,0,0.014,36.666000000000004,0)" xlink:href="#be"/><use transform="matrix(0.014,0,0,0.014,44.254000000000005,0)" xlink:href="#aX"/><use transform="matrix(0.014,0,0,0.014,52.164,0)" xlink:href="#bf"/><use transform="matrix(0.014,0,0,0.014,65.464,0)" xlink:href="#aX"/><use transform="matrix(0.014,0,0,0.014,73.374,0)" xlink:href="#bd"/><use transform="matrix(0.014,0,0,0.014,81.886,0)" xlink:href="#aZ"/></g><path fill="#032D60" d="M305-523c165 3 256 102 256 267 0 164-91 270-256 270C141 14 52-92 50-256c-2-160 95-269 255-267zm0 68c-116 0-167 83-167 199S190-54 305-54c116 0 169-86 169-202 0-117-53-199-169-199" id="bj"/><path fill="#032D60" d="M50-253c3-155 81-270 235-270 68 0 123 22 166 66v-251h85v595c0 37 2 74 7 113h-79c-6-29-4-58-9-76-38 60-99 90-182 90C125 14 47-103 50-253zM292-54c94 1 159-71 159-165v-160c-36-45-79-74-154-75-104-1-159 92-159 201 0 111 50 197 154 199" id="bk"/><path fill="#032D60" d="M172-708V0H87v-708h85" id="bl"/><g id="k"><use transform="matrix(0.014,0,0,0.014,0,0)" xlink:href="#bf"/><use transform="matrix(0.014,0,0,0.014,13.3,0)" xlink:href="#bj"/><use transform="matrix(0.014,0,0,0.014,21.854,0)" xlink:href="#bk"/><use transform="matrix(0.014,0,0,0.014,30.548000000000002,0)" xlink:href="#aX"/><use transform="matrix(0.014,0,0,0.014,38.458,0)" xlink:href="#bl"/></g><path fill="#032D60" d="M41-381c-4-162 252-177 353-88l-38 53c-39-27-82-41-128-41-98 0-143 107-54 139 97 35 229 46 229 174C403 35 133 53 25-45l39-53c42 28 78 41 142 45 80 4 134-58 99-129-26-31-59-35-113-51-89-25-148-50-151-148" id="bm"/><g id="l"><use transform="matrix(0.014,0,0,0.014,0,0)" xlink:href="#ba"/><use transform="matrix(0.014,0,0,0.014,8.386,0)" xlink:href="#bm"/><use transform="matrix(0.014,0,0,0.014,14.573999999999996,0)" xlink:href="#bh"/><use transform="matrix(0.014,0,0,0.014,18.186,0)" xlink:href="#bd"/><use transform="matrix(0.014,0,0,0.014,26.782,0)" xlink:href="#be"/></g><path fill="#032D60" d="M329-708c148 1 256 75 253 230-3 151-104 233-251 233H179V0H90v-708h239zm162 231c0-108-70-160-170-160H178v320h145c95 0 168-60 168-160" id="bn"/><g id="m"><use transform="matrix(0.014,0,0,0.014,0,0)" xlink:href="#bn"/><use transform="matrix(0.014,0,0,0.014,8.134,0)" xlink:href="#aX"/><use transform="matrix(0.014,0,0,0.014,16.044,0)" xlink:href="#bb"/><use transform="matrix(0.014,0,0,0.014,21.14,0)" xlink:href="#bf"/><use transform="matrix(0.014,0,0,0.014,34.44,0)" xlink:href="#bh"/><use transform="matrix(0.014,0,0,0.014,38.052,0)" xlink:href="#bm"/><use transform="matrix(0.014,0,0,0.014,44.24,0)" xlink:href="#bm"/><use transform="matrix(0.014,0,0,0.014,50.428000000000004,0)" xlink:href="#bh"/><use transform="matrix(0.014,0,0,0.014,54.040000000000006,0)" xlink:href="#bj"/><use transform="matrix(0.014,0,0,0.014,62.594000000000015,0)" xlink:href="#bd"/></g><path fill="#032D60" d="M519-192C526 49 168 67 30-66l45-56c53 42 105 63 193 64 90 1 164-42 161-131-3-108-85-124-177-151-113-33-191-67-197-195-9-210 320-235 451-122l-40 58c-51-32-98-52-175-53-81-1-152 34-149 111 4 95 69 103 160 131 125 38 213 72 217 218" id="bo"/><path fill="#032D60" d="M135-103c83 1 63 119 37 173-15 32-44 68-85 107l-33-30c43-49 68-77 75-147-31-5-48-18-49-51 0-30 23-52 55-52" id="bp"/><g id="n"><use transform="matrix(0.014,0,0,0.014,0,0)" xlink:href="#bo"/><use transform="matrix(0.014,0,0,0.014,7.8260000000000005,0)" xlink:href="#aX"/><use transform="matrix(0.014,0,0,0.014,15.652000000000001,0)" xlink:href="#aZ"/><use transform="matrix(0.014,0,0,0.014,20.650000000000002,0)" xlink:href="#bm"/><use transform="matrix(0.014,0,0,0.014,26.838,0)" xlink:href="#bp"/></g><g id="o"><use transform="matrix(0.014,0,0,0.014,0,0)" xlink:href="#bn"/><use transform="matrix(0.014,0,0,0.014,8.134,0)" xlink:href="#aX"/><use transform="matrix(0.014,0,0,0.014,16.044,0)" xlink:href="#bb"/><use transform="matrix(0.014,0,0,0.014,21.14,0)" xlink:href="#bf"/><use transform="matrix(0.014,0,0,0.014,34.44,0)" xlink:href="#bh"/><use transform="matrix(0.014,0,0,0.014,38.052,0)" xlink:href="#bm"/><use transform="matrix(0.014,0,0,0.014,44.24,0)" xlink:href="#bm"/><use transform="matrix(0.014,0,0,0.014,50.428000000000004,0)" xlink:href="#bh"/><use transform="matrix(0.014,0,0,0.014,54.040000000000006,0)" xlink:href="#bj"/><use transform="matrix(0.014,0,0,0.014,62.594000000000015,0)" xlink:href="#bd"/></g><g id="p"><use transform="matrix(0.014,0,0,0.014,0,0)" xlink:href="#bo"/><use transform="matrix(0.014,0,0,0.014,7.8260000000000005,0)" xlink:href="#aX"/><use transform="matrix(0.014,0,0,0.014,15.652000000000001,0)" xlink:href="#aZ"/></g><path fill="#032D60" d="M403 17C171 15 49-124 49-355c0-228 128-370 356-370 99 0 186 37 239 87l-50 57c-45-38-108-67-186-68-174-3-269 122-268 294 0 179 84 300 264 298 75 0 123-17 178-40v-193H418v-69h246v310c-75 39-150 67-261 66" id="bq"/><path fill="#032D60" d="M349-523c153 3 224 114 224 268 0 156-81 269-235 269-65 0-120-21-167-63v293H86v-639c0-37-2-75-7-114h81c5 21 3 52 9 78 33-55 92-94 180-92zM320-54c111 1 165-88 165-201 0-111-49-200-153-200-99 0-161 67-161 165v169c42 40 76 65 149 67" id="br"/><g id="q"><use transform="matrix(0.014,0,0,0.014,0,0)" xlink:href="#bq"/><use transform="matrix(0.014,0,0,0.014,10.43,0)" xlink:href="#bb"/><use transform="matrix(0.014,0,0,0.014,15.26,0)" xlink:href="#bj"/><use transform="matrix(0.014,0,0,0.014,23.814,0)" xlink:href="#ba"/><use transform="matrix(0.014,0,0,0.014,32.424,0)" xlink:href="#br"/><use transform="matrix(0.014,0,0,0.014,41.132,0)" xlink:href="#bm"/></g><g id="r"><use transform="matrix(0.014,0,0,0.014,0,0)" xlink:href="#aY"/><use transform="matrix(0.014,0,0,0.014,7.644,0)" xlink:href="#bd"/><use transform="matrix(0.014,0,0,0.014,16.240000000000002,0)" xlink:href="#bk"/></g><path fill="#032D60" d="M49-355c0-228 122-371 351-371 102 0 185 35 240 87l-52 57c-44-40-106-67-185-68-174-3-262 122-262 295-1 171 88 297 260 294 84 0 152-36 197-80l54 59C596-25 507 18 398 17 170 15 49-128 49-355" id="bs"/><g id="s"><use transform="matrix(0.014,0,0,0.014,0,0)" xlink:href="#bs"/><use transform="matrix(0.014,0,0,0.014,9.212,0)" xlink:href="#ba"/><use transform="matrix(0.014,0,0,0.014,17.598,0)" xlink:href="#bm"/><use transform="matrix(0.014,0,0,0.014,23.785999999999998,0)" xlink:href="#aZ"/><use transform="matrix(0.014,0,0,0.014,28.602,0)" xlink:href="#bj"/><use transform="matrix(0.014,0,0,0.014,37.156,0)" xlink:href="#bf"/></g><g id="t"><use transform="matrix(0.014,0,0,0.014,0,0)" xlink:href="#bn"/><use transform="matrix(0.014,0,0,0.014,8.134,0)" xlink:href="#aX"/><use transform="matrix(0.014,0,0,0.014,16.044,0)" xlink:href="#bb"/><use transform="matrix(0.014,0,0,0.014,21.14,0)" xlink:href="#bf"/><use transform="matrix(0.014,0,0,0.014,34.44,0)" xlink:href="#bh"/><use transform="matrix(0.014,0,0,0.014,38.052,0)" xlink:href="#bm"/><use transform="matrix(0.014,0,0,0.014,44.24,0)" xlink:href="#bm"/><use transform="matrix(0.014,0,0,0.014,50.428000000000004,0)" xlink:href="#bh"/><use transform="matrix(0.014,0,0,0.014,54.040000000000006,0)" xlink:href="#bj"/><use transform="matrix(0.014,0,0,0.014,62.594000000000015,0)" xlink:href="#bd"/><use transform="matrix(0.014,0,0,0.014,71.19000000000001,0)" xlink:href="#bm"/></g><path d="M354-211C351-72 278 17 136 19 85 19 40 7 3-17l48-97c17 11 48 20 76 20 64 0 96-39 96-116v-498h131v497" id="bt"/><path d="M314-534c172 0 271 101 271 272C585-92 485 14 314 14 144 14 44-93 44-262c0-171 98-272 270-272zm0 100c-102 0-140 71-140 172 0 102 39 177 141 177s142-75 142-177-40-172-143-172" id="bu"/><path d="M330-430c-78 0-127 63-127 141V0H78v-708h125c1 81-3 167 2 245 38-47 94-71 167-71 121 0 189 79 189 190V0H436v-317c-1-69-32-113-106-113" id="bv"/><path d="M330-430c-79 0-127 62-127 141V0H78c-4-180 9-350-9-520h120c5 20 4 44 10 60 33-43 94-75 172-74 122 1 190 74 190 190V0H436v-317c-1-69-32-113-106-113" id="bw"/><g id="v"><use transform="matrix(0.02,0,0,0.02,0,0)" xlink:href="#bt"/><use transform="matrix(0.02,0,0,0.02,8.52,0)" xlink:href="#bu"/><use transform="matrix(0.02,0,0,0.02,21.119999999999997,0)" xlink:href="#bv"/><use transform="matrix(0.02,0,0,0.02,33.8,0)" xlink:href="#bw"/></g><path d="M321-708c238 0 378 113 376 353C695-123 558 0 326 0H80v-708h241zm241 353c0-168-80-245-246-246H210v493h103c166-1 249-79 249-247" id="bx"/><path d="M295-534c175 0 256 137 237 320H170c10 80 57 129 145 129 69-1 102-19 149-47l54 80c-56 41-119 66-211 66C138 14 46-91 44-260c-2-161 90-274 251-274zm117 226c-3-74-41-132-118-132-79 0-120 59-125 132h243" id="by"/><g id="w"><use transform="matrix(0.02,0,0,0.02,0,0)" xlink:href="#bx"/><use transform="matrix(0.02,0,0,0.02,14.8,0)" xlink:href="#bu"/><use transform="matrix(0.02,0,0,0.02,27.400000000000002,0)" xlink:href="#by"/></g><path d="M316-708c234 0 367 116 367 353C683-126 546 1 318 0H90v-708h226zm-7 634c186-1 284-92 283-281 0-187-94-280-282-280H178v561h131" id="bz"/><path d="M288-523c162-3 241 129 226 299H136c6 100 61 171 167 170 70-1 110-20 156-50l38 55c-54 38-112 62-199 63C141 16 48-99 50-257c3-159 80-263 238-266zm145 233c-2-96-49-168-146-168-96 0-149 75-152 168h298" id="bA"/><path d="M206 14C109 15 40-41 42-139c1-169 156-177 340-175 7-97-33-143-126-142-54 0-105 14-153 43l-30-57c57-35 120-53 188-53 141 0 204 63 206 202 1 110-5 220 7 321h-78c-5-29-7-52-7-69h-3c-38 54-89 83-180 83zm22-67c89-2 148-53 154-135v-66s-251-9-252 110c0 59 38 91 98 91" id="bB"/><path d="M172-708V0H87v-708h85" id="bC"/><path d="M353-447c-118-18-182 64-182 174V0H86c-3-170 7-349-7-509h81c5 22 3 54 9 81 32-70 98-104 189-92" id="bD"/><g id="x"><use transform="matrix(0.015,0,0,0.015,0,0)" xlink:href="#bz"/><use transform="matrix(0.015,0,0,0.015,10.98,0)" xlink:href="#bA"/><use transform="matrix(0.015,0,0,0.015,19.455,0)" xlink:href="#bB"/><use transform="matrix(0.015,0,0,0.015,27.644999999999996,0)" xlink:href="#bC"/><use transform="matrix(0.015,0,0,0.015,31.515,0)" xlink:href="#bA"/><use transform="matrix(0.015,0,0,0.015,39.989999999999995,0)" xlink:href="#bD"/></g><path d="M367 17C186 17 81-77 81-254v-454h88v447c1 134 61 201 198 201s198-67 198-201v-447h89v454C654-77 548 17 367 17" id="bE"/><path d="M41-381c-4-162 252-177 353-88l-38 53c-39-27-82-41-128-41-98 0-143 107-54 139 97 35 229 46 229 174C403 35 133 53 25-45l39-53c42 28 78 41 142 45 80 4 134-58 99-129-26-31-59-35-113-51-89-25-148-50-151-148" id="bF"/><g id="y"><use transform="matrix(0.015,0,0,0.015,0,0)" xlink:href="#bE"/><use transform="matrix(0.015,0,0,0.015,11.025,0)" xlink:href="#bF"/><use transform="matrix(0.015,0,0,0.015,17.655,0)" xlink:href="#bA"/><use transform="matrix(0.015,0,0,0.015,26.130000000000003,0)" xlink:href="#bD"/></g><filter id="u" filterUnits="objectBoundingBox" x="-.02" y="-.01" width="1.03" height="1.04"><feOffset result="offOut" in="SourceAlpha" dy="3"/><feGaussianBlur result="blurOut" in="offOut" stdDeviation="2.5"/><feColorMatrix result="colorOut" in="blurOut" values="0 0 0 0 0.018823529411764708 0 0 0 0 0.018823529411764708 0 0 0 0 0.018823529411764708 0 0 0 0.2 0"/><feBlend in="SourceGraphic" in2="colorOut"/></filter><path d="M858 0H730c0-185 5-375 1-557L513 0h-98c-73-185-142-374-217-557l4 557H80v-708h192c65 176 127 355 195 528l198-528h193V0" id="bG"/><path d="M206 14C110 14 37-46 38-146c2-168 152-185 331-181 25-144-173-124-258-70l-42-83c50-30 124-54 200-54 156 0 223 66 225 217 2 121-6 199 9 317H388c-5-27-8-47-9-59h-3c-39 49-83 73-170 73zm36-98c87-3 138-59 128-159-104-1-200-4-202 88-1 45 29 73 74 71" id="bH"/><path d="M566 0H416L282-194 153 0H5l200-272L27-520h144l116 175 114-175h137L363-272" id="bI"/><g id="A"><use transform="matrix(0.02,0,0,0.02,0,0)" xlink:href="#bG"/><use transform="matrix(0.02,0,0,0.02,18.76,0)" xlink:href="#bH"/><use transform="matrix(0.02,0,0,0.02,30.14,0)" xlink:href="#bI"/></g><path d="M203-708V0H78v-708h125" id="bJ"/><g id="B"><use transform="matrix(0.02,0,0,0.02,0,0)" xlink:href="#bx"/><use transform="matrix(0.02,0,0,0.02,14.8,0)" xlink:href="#by"/><use transform="matrix(0.02,0,0,0.02,26.38,0)" xlink:href="#bH"/><use transform="matrix(0.02,0,0,0.02,37.760000000000005,0)" xlink:href="#bJ"/></g><g id="C"><use transform="matrix(0.015,0,0,0.015,0,0)" xlink:href="#bz"/><use transform="matrix(0.015,0,0,0.015,10.98,0)" xlink:href="#bA"/><use transform="matrix(0.015,0,0,0.015,19.455,0)" xlink:href="#bB"/><use transform="matrix(0.015,0,0,0.015,27.644999999999996,0)" xlink:href="#bC"/><use transform="matrix(0.015,0,0,0.015,31.515,0)" xlink:href="#bA"/><use transform="matrix(0.015,0,0,0.015,39.989999999999995,0)" xlink:href="#bD"/></g><path d="M179-75h324V0H90v-708h89v633" id="bK"/><path d="M50-253c3-155 81-270 235-270 68 0 123 22 166 66v-251h85v595c0 37 2 74 7 113h-79c-6-29-4-58-9-76-38 60-99 90-182 90C125 14 47-103 50-253zM292-54c94 1 159-71 159-165v-160c-36-45-79-74-154-75-104-1-159 92-159 201 0 111 50 197 154 199" id="bL"/><g id="D"><use transform="matrix(0.015,0,0,0.015,0,0)" xlink:href="#bK"/><use transform="matrix(0.015,0,0,0.015,7.4399999999999995,0)" xlink:href="#bA"/><use transform="matrix(0.015,0,0,0.015,15.915,0)" xlink:href="#bB"/><use transform="matrix(0.015,0,0,0.015,24.104999999999997,0)" xlink:href="#bL"/><use transform="matrix(0.015,0,0,0.015,33.419999999999995,0)" xlink:href="#bA"/><use transform="matrix(0.015,0,0,0.015,41.894999999999996,0)" xlink:href="#bD"/></g><filter id="z" filterUnits="objectBoundingBox" x="-.02" y="-.01" width="1.03" height="1.04"><feOffset result="offOut" in="SourceAlpha" dy="3"/><feGaussianBlur result="blurOut" in="offOut" stdDeviation="2.5"/><feColorMatrix result="colorOut" in="blurOut" values="0 0 0 0 0.018823529411764708 0 0 0 0 0.018823529411764708 0 0 0 0 0.018823529411764708 0 0 0 0.2 0"/><feBlend in="SourceGraphic" in2="colorOut"/></filter><path d="M380-422c-108-21-177 50-177 149V0H78c-4-180 9-350-9-520h120c6 28 5 55 10 72 34-65 100-96 186-82" id="bM"/><g id="F"><use transform="matrix(0.02,0,0,0.02,0,0)" xlink:href="#bx"/><use transform="matrix(0.02,0,0,0.02,14.8,0)" xlink:href="#by"/><use transform="matrix(0.02,0,0,0.02,26.38,0)" xlink:href="#bH"/><use transform="matrix(0.02,0,0,0.02,37.760000000000005,0)" xlink:href="#bJ"/><use transform="matrix(0.02,0,0,0.02,43.40000000000001,0)" xlink:href="#by"/><use transform="matrix(0.02,0,0,0.02,54.980000000000004,0)" xlink:href="#bM"/></g><path d="M405 19C170 19 44-121 44-355c0-230 129-369 360-372 102-1 196 37 249 90l-74 84c-40-35-100-62-170-62-157-2-231 105-231 260 0 177 76 265 229 265 49 0 97-10 142-29v-158H404v-100h266v329C590-3 502 19 405 19" id="bN"/><path d="M366-534c151 0 227 122 225 273-2 163-86 275-250 275-55 0-106-18-152-54l-8 40H78v-708h125v245h3c35-47 89-71 160-71zM324-85c97 0 138-75 138-176 0-98-35-170-123-173-77-2-136 64-136 141v166c37 24 66 41 121 42" id="bO"/><g id="G"><use transform="matrix(0.015,0,0,0.015,0,0)" xlink:href="#bN"/><use transform="matrix(0.015,0,0,0.015,11.129999999999999,0)" xlink:href="#bJ"/><use transform="matrix(0.015,0,0,0.015,15.36,0)" xlink:href="#bu"/><use transform="matrix(0.015,0,0,0.015,24.81,0)" xlink:href="#bO"/><use transform="matrix(0.015,0,0,0.015,34.349999999999994,0)" xlink:href="#bH"/><use transform="matrix(0.015,0,0,0.015,42.88499999999999,0)" xlink:href="#bJ"/></g><path d="M527-601H211v197h275v107H211V0H80v-708h447v107" id="bP"/><path d="M266 14c-103 1-166-60-165-163v-271H15v-80l85-15v-123l126-44v167h129v95H226v259c-6 69 55 85 113 68l18 92c-25 10-56 15-91 15" id="bQ"/><path d="M269 14C141 14 72-75 72-200v-320h126v301c0 78 28 134 105 134 81 0 128-71 128-153v-282h125c4 175-9 357 9 520H445c-6-24-5-47-10-61-37 50-92 75-166 75" id="bR"/><path d="M39-378c0-175 271-194 382-101l-50 79c-41-25-82-38-123-38-83 0-118 83-42 107 98 31 223 49 223 175C429 33 141 56 23-45l54-78c39 24 75 33 132 40 84 10 127-92 48-118-99-33-218-48-218-177" id="bS"/><g id="H"><use transform="matrix(0.015,0,0,0.015,0,0)" xlink:href="#bP"/><use transform="matrix(0.015,0,0,0.015,7.38,0)" xlink:href="#by"/><use transform="matrix(0.015,0,0,0.015,16.065,0)" xlink:href="#bH"/><use transform="matrix(0.015,0,0,0.015,24.525000000000002,0)" xlink:href="#bQ"/><use transform="matrix(0.015,0,0,0.015,30.3,0)" xlink:href="#bR"/><use transform="matrix(0.015,0,0,0.015,39.81,0)" xlink:href="#bM"/><use transform="matrix(0.015,0,0,0.015,45.480000000000004,0)" xlink:href="#by"/><use transform="matrix(0.015,0,0,0.015,54.165000000000006,0)" xlink:href="#bS"/></g><g id="I"><use transform="matrix(0.015,0,0,0.015,0,0)" xlink:href="#bx"/><use transform="matrix(0.015,0,0,0.015,11.1,0)" xlink:href="#by"/><use transform="matrix(0.015,0,0,0.015,19.785,0)" xlink:href="#bH"/><use transform="matrix(0.015,0,0,0.015,28.32,0)" xlink:href="#bJ"/><use transform="matrix(0.015,0,0,0.015,32.55,0)" xlink:href="#by"/><use transform="matrix(0.015,0,0,0.015,41.235,0)" xlink:href="#bM"/></g><path d="M49-355c0-228 122-371 351-371 102 0 185 35 240 87l-52 57c-44-40-106-67-185-68-174-3-262 122-262 295-1 171 88 297 260 294 84 0 152-36 197-80l54 59C596-25 507 18 398 17 170 15 49-128 49-355" id="bT"/><path d="M328 1C218 40 105-8 105-130v-314H15v-55l89-10v-125l86-30v155h135v65H190v307c-6 76 60 95 125 75" id="bU"/><g id="J"><use transform="matrix(0.015,0,0,0.015,0,0)" xlink:href="#bT"/><use transform="matrix(0.015,0,0,0.015,10.11,0)" xlink:href="#bD"/><use transform="matrix(0.015,0,0,0.015,15.285,0)" xlink:href="#bA"/><use transform="matrix(0.015,0,0,0.015,23.759999999999998,0)" xlink:href="#bB"/><use transform="matrix(0.015,0,0,0.015,31.86,0)" xlink:href="#bU"/><use transform="matrix(0.015,0,0,0.015,37.019999999999996,0)" xlink:href="#bA"/></g><path d="M404 17C175 17 49-126 49-354s126-371 355-371 355 143 355 371S633 17 404 17zm1-77c173 0 264-121 264-294s-91-294-264-294c-174 0-265 121-265 294S231-60 405-60" id="bV"/><g id="K"><use transform="matrix(0.015,0,0,0.015,0,0)" xlink:href="#bV"/><use transform="matrix(0.015,0,0,0.015,12.135,0)" xlink:href="#bD"/><use transform="matrix(0.015,0,0,0.015,17.31,0)" xlink:href="#bL"/><use transform="matrix(0.015,0,0,0.015,26.625,0)" xlink:href="#bA"/><use transform="matrix(0.015,0,0,0.015,35.1,0)" xlink:href="#bD"/><use transform="matrix(0.015,0,0,0.015,40.56,0)" xlink:href="#bF"/></g><path d="M571-480c1 116-68 180-159 207L590 0H488L327-259H179V0H90v-708h233c148 3 246 78 248 228zm-91 0c0-100-69-157-163-157H178v310h142c93 0 160-56 160-153" id="bW"/><g id="L"><use transform="matrix(0.015,0,0,0.015,0,0)" xlink:href="#bW"/><use transform="matrix(0.015,0,0,0.015,9.135,0)" xlink:href="#bA"/><use transform="matrix(0.015,0,0,0.015,17.61,0)" xlink:href="#bB"/><use transform="matrix(0.015,0,0,0.015,25.799999999999997,0)" xlink:href="#bL"/></g><path d="M495-172H163L97 0H4l280-708h93L655 0h-96zm-307-69h282L329-624" id="bX"/><path d="M50-255c-6-191 150-312 344-253 29 10 54 23 77 40l-34 59c-39-29-84-43-135-43-113-1-166 83-166 197 0 112 54 199 165 197 46 0 92-14 137-43l31 60C418-4 360 14 295 14 131 13 55-96 50-255" id="bY"/><path d="M305-523c165 3 256 102 256 267 0 164-91 270-256 270C141 14 52-92 50-256c-2-160 95-269 255-267zm0 68c-116 0-167 83-167 199S190-54 305-54c116 0 169-86 169-202 0-117-53-199-169-199" id="bZ"/><path d="M270 14C144 14 79-74 79-197v-312h86v300c0 89 37 155 125 155 95 0 154-86 154-183v-272h85c3 170-7 349 7 509h-81c-5-20-3-53-9-81-37 63-95 95-176 95" id="ca"/><path d="M323-452c-91 0-152 70-152 160V0H86c-3-170 7-349-7-509h81c5 17 3 46 9 72 33-51 94-86 177-86 122 0 189 80 189 194V0h-85v-312c-1-82-40-140-127-140" id="cb"/><g id="M"><use transform="matrix(0.015,0,0,0.015,0,0)" xlink:href="#bX"/><use transform="matrix(0.015,0,0,0.015,9.81,0)" xlink:href="#bY"/><use transform="matrix(0.015,0,0,0.015,17.115000000000002,0)" xlink:href="#bY"/><use transform="matrix(0.015,0,0,0.015,24.42,0)" xlink:href="#bZ"/><use transform="matrix(0.015,0,0,0.015,33.585,0)" xlink:href="#ca"/><use transform="matrix(0.015,0,0,0.015,42.81,0)" xlink:href="#cb"/><use transform="matrix(0.015,0,0,0.015,51.93,0)" xlink:href="#bU"/><use transform="matrix(0.015,0,0,0.015,57.285,0)" xlink:href="#bF"/></g><path d="M335-708c157 0 270 77 267 237-3 159-110 238-267 242H211V0H80v-708h255zm134 238c0-136-122-140-259-133v268h113c83 0 146-47 146-135" id="cc"/><path d="M323-431c-76 0-120 65-120 142V0H78c-4-180 9-350-9-520h120c5 21 4 44 10 59 33-42 89-73 163-73 79 0 131 31 166 86 39-57 97-86 173-86 125 1 193 81 193 202V0H769v-314c-1-70-28-117-100-117-78 0-121 72-120 149V0H423v-324c-1-62-33-107-100-107" id="cd"/><path d="M203 0H78v-520h125V0zm-62-611c-51 0-77-26-77-71 0-48 26-72 77-72s77 26 77 72c0 45-28 71-77 71" id="ce"/><g id="N"><use transform="matrix(0.015,0,0,0.015,0,0)" xlink:href="#cc"/><use transform="matrix(0.015,0,0,0.015,8.955,0)" xlink:href="#by"/><use transform="matrix(0.015,0,0,0.015,17.64,0)" xlink:href="#bM"/><use transform="matrix(0.015,0,0,0.015,23.52,0)" xlink:href="#cd"/><use transform="matrix(0.015,0,0,0.015,38.01,0)" xlink:href="#ce"/><use transform="matrix(0.015,0,0,0.015,42.239999999999995,0)" xlink:href="#bS"/><use transform="matrix(0.015,0,0,0.015,49.154999999999994,0)" xlink:href="#bS"/><use transform="matrix(0.015,0,0,0.015,56.06999999999999,0)" xlink:href="#ce"/><use transform="matrix(0.015,0,0,0.015,60.29999999999999,0)" xlink:href="#bu"/><use transform="matrix(0.015,0,0,0.015,69.74999999999999,0)" xlink:href="#bw"/></g><path d="M540-200C550 52 170 69 26-64l63-83c71 67 317 99 317-48 0-96-79-102-162-127-111-33-193-77-195-204-4-228 334-244 479-129l-59 85c-50-30-95-49-167-50-67 0-123 23-123 86 0 82 64 84 147 110 123 38 208 79 214 224" id="cf"/><g id="O"><use transform="matrix(0.015,0,0,0.015,0,0)" xlink:href="#cf"/><use transform="matrix(0.015,0,0,0.015,8.625,0)" xlink:href="#by"/><use transform="matrix(0.015,0,0,0.015,17.235,0)" xlink:href="#bQ"/></g><path d="M367-534c156 0 224 117 224 273 0 157-81 275-237 275-60 0-110-17-151-50v280H78v-645c0-25-3-65-9-119h120c6 27 5 51 10 62 40-51 96-76 168-76zM324-85c97 0 138-75 138-176 0-99-35-171-124-173-77-2-135 64-135 141v166c37 24 66 41 121 42" id="cg"/><g id="P"><use transform="matrix(0.015,0,0,0.015,0,0)" xlink:href="#bN"/><use transform="matrix(0.015,0,0,0.015,11.129999999999999,0)" xlink:href="#bM"/><use transform="matrix(0.015,0,0,0.015,16.799999999999997,0)" xlink:href="#bu"/><use transform="matrix(0.015,0,0,0.015,26.249999999999996,0)" xlink:href="#bR"/><use transform="matrix(0.015,0,0,0.015,35.76,0)" xlink:href="#cg"/></g><filter id="E" filterUnits="objectBoundingBox" x="-.02" y="-.01" width="1.03" height="1.03"><feOffset result="offOut" in="SourceAlpha" dy="3"/><feGaussianBlur result="blurOut" in="offOut" stdDeviation="2.5"/><feColorMatrix result="colorOut" in="blurOut" values="0 0 0 0 0.018823529411764708 0 0 0 0 0.018823529411764708 0 0 0 0 0.018823529411764708 0 0 0 0.2 0"/><feBlend in="SourceGraphic" in2="colorOut"/></filter><g id="R"><use transform="matrix(0.02,0,0,0.02,0,0)" xlink:href="#bx"/><use transform="matrix(0.02,0,0,0.02,14.8,0)" xlink:href="#by"/><use transform="matrix(0.02,0,0,0.02,26.38,0)" xlink:href="#bH"/><use transform="matrix(0.02,0,0,0.02,37.760000000000005,0)" xlink:href="#bJ"/><use transform="matrix(0.02,0,0,0.02,43.40000000000001,0)" xlink:href="#by"/><use transform="matrix(0.02,0,0,0.02,54.980000000000004,0)" xlink:href="#bM"/></g><path d="M211-109h306V0H80v-708h131v599" id="ch"/><path d="M44-257c2-159 83-277 241-277 59 0 108 17 147 52v-226h125c4 237-9 482 8 708H449c-6-26-5-51-10-65-38 51-88 79-175 79C113 16 42-104 44-257zM298-85c79 1 134-62 134-142v-152c-34-36-77-54-128-54-90 1-130 79-130 176S212-88 298-85" id="ci"/><g id="S"><use transform="matrix(0.02,0,0,0.02,0,0)" xlink:href="#ch"/><use transform="matrix(0.02,0,0,0.02,10.2,0)" xlink:href="#by"/><use transform="matrix(0.02,0,0,0.02,21.78,0)" xlink:href="#bH"/><use transform="matrix(0.02,0,0,0.02,33.160000000000004,0)" xlink:href="#ci"/><use transform="matrix(0.02,0,0,0.02,45.86000000000001,0)" xlink:href="#by"/><use transform="matrix(0.02,0,0,0.02,57.44,0)" xlink:href="#bM"/><use transform="matrix(0.02,0,0,0.02,65.28,0)" xlink:href="#bS"/><use transform="matrix(0.02,0,0,0.02,74.5,0)" xlink:href="#bv"/><use transform="matrix(0.02,0,0,0.02,87.18,0)" xlink:href="#ce"/><use transform="matrix(0.02,0,0,0.02,92.82000000000001,0)" xlink:href="#cg"/></g><g id="T"><use transform="matrix(0.015,0,0,0.015,0,0)" xlink:href="#bz"/><use transform="matrix(0.015,0,0,0.015,10.98,0)" xlink:href="#bA"/><use transform="matrix(0.015,0,0,0.015,19.455,0)" xlink:href="#bC"/><use transform="matrix(0.015,0,0,0.015,23.325,0)" xlink:href="#bA"/><use transform="matrix(0.015,0,0,0.015,31.709999999999997,0)" xlink:href="#bU"/><use transform="matrix(0.015,0,0,0.015,36.87,0)" xlink:href="#bA"/></g><path d="M519-637H178v238h297v68H178v258h358V0H90v-708h429v71" id="cj"/><path d="M172 0H87v-509h85V0zm-42-631c-37 0-55-19-56-52 0-36 19-54 56-54s55 18 55 54c-1 33-19 52-55 52" id="ck"/><g id="U"><use transform="matrix(0.015,0,0,0.015,0,0)" xlink:href="#cj"/><use transform="matrix(0.015,0,0,0.015,8.145,0)" xlink:href="#bL"/><use transform="matrix(0.015,0,0,0.015,17.46,0)" xlink:href="#ck"/><use transform="matrix(0.015,0,0,0.015,21.330000000000002,0)" xlink:href="#bU"/></g><filter id="Q" filterUnits="objectBoundingBox" x="-.02" y="-.01" width="1.03" height="1.03"><feOffset result="offOut" in="SourceAlpha" dy="3"/><feGaussianBlur result="blurOut" in="offOut" stdDeviation="2.5"/><feColorMatrix result="colorOut" in="blurOut" values="0 0 0 0 0.018823529411764708 0 0 0 0 0.018823529411764708 0 0 0 0 0.018823529411764708 0 0 0 0.2 0"/><feBlend in="SourceGraphic" in2="colorOut"/></filter><g id="W"><use transform="matrix(0.02,0,0,0.02,0,0)" xlink:href="#bN"/><use transform="matrix(0.02,0,0,0.02,14.84,0)" xlink:href="#bJ"/><use transform="matrix(0.02,0,0,0.02,20.48,0)" xlink:href="#bu"/><use transform="matrix(0.02,0,0,0.02,33.08,0)" xlink:href="#bO"/><use transform="matrix(0.02,0,0,0.02,45.800000000000004,0)" xlink:href="#bH"/><use transform="matrix(0.02,0,0,0.02,57.18,0)" xlink:href="#bJ"/></g><g id="X"><use transform="matrix(0.02,0,0,0.02,0,0)" xlink:href="#bP"/><use transform="matrix(0.02,0,0,0.02,9.84,0)" xlink:href="#by"/><use transform="matrix(0.02,0,0,0.02,21.42,0)" xlink:href="#bH"/><use transform="matrix(0.02,0,0,0.02,32.7,0)" xlink:href="#bQ"/><use transform="matrix(0.02,0,0,0.02,40.400000000000006,0)" xlink:href="#bR"/><use transform="matrix(0.02,0,0,0.02,53.08,0)" xlink:href="#bM"/><use transform="matrix(0.02,0,0,0.02,60.64,0)" xlink:href="#by"/><use transform="matrix(0.02,0,0,0.02,72.22,0)" xlink:href="#bS"/></g><path d="M349-523c153 3 224 114 224 268 0 156-81 269-235 269-65 0-120-21-167-63v293H86v-639c0-37-2-75-7-114h81c5 21 3 52 9 78 33-55 92-94 180-92zM320-54c111 1 165-88 165-201 0-111-49-200-153-200-99 0-161 67-161 165v169c42 40 76 65 149 67" id="cl"/><g id="Y"><use transform="matrix(0.015,0,0,0.015,0,0)" xlink:href="#bz"/><use transform="matrix(0.015,0,0,0.015,10.98,0)" xlink:href="#bA"/><use transform="matrix(0.015,0,0,0.015,19.455,0)" xlink:href="#bL"/><use transform="matrix(0.015,0,0,0.015,28.769999999999996,0)" xlink:href="#ca"/><use transform="matrix(0.015,0,0,0.015,37.995,0)" xlink:href="#cl"/><use transform="matrix(0.015,0,0,0.015,47.324999999999996,0)" xlink:href="#bC"/><use transform="matrix(0.015,0,0,0.015,51.19499999999999,0)" xlink:href="#ck"/><use transform="matrix(0.015,0,0,0.015,55.06499999999999,0)" xlink:href="#bY"/><use transform="matrix(0.015,0,0,0.015,62.61,0)" xlink:href="#bB"/><use transform="matrix(0.015,0,0,0.015,70.71,0)" xlink:href="#bU"/><use transform="matrix(0.015,0,0,0.015,75.87,0)" xlink:href="#bA"/></g><path d="M464-527l35 54-308 189L498-95l-35 54-352-210v-64" id="cm"/><path d="M247 257c-129 0-227-40-227-153C20 28 64-4 125-36c-33-15-49-37-49-67 0-43 35-68 74-79-60-24-100-74-100-157 0-151 154-213 302-170h177v68l-113-12c32 23 55 66 54 122 0 115-87 172-209 172-52 0-107 9-107 49 0 27 32 41 97 42 94 1 163 14 205 38s63 59 63 107c0 132-124 180-272 180zM129-341c1 79 47 121 131 121 87 0 131-39 131-118-1-77-49-121-131-121-76 0-132 44-131 118zm121 534c101 0 185-23 185-109 0-54-41-66-99-78-36-7-85-10-148-10-49 23-85 46-85 104 0 62 49 93 147 93" id="cn"/><path d="M245 124c-31 80-63 130-160 133-26 0-50-4-71-12l17-63C159 220 168 89 202 3L4-509h92c50 139 97 282 150 419l136-419h87" id="co"/><g id="Z"><use transform="matrix(0.015,0,0,0.015,0,0)" xlink:href="#cm"/><use transform="matrix(0.015,0,0,0.015,9.15,0)" xlink:href="#cn"/><use transform="matrix(0.015,0,0,0.015,17.28,0)" xlink:href="#bA"/><use transform="matrix(0.015,0,0,0.015,25.755000000000003,0)" xlink:href="#cb"/><use transform="matrix(0.015,0,0,0.015,34.965,0)" xlink:href="#bA"/><use transform="matrix(0.015,0,0,0.015,43.440000000000005,0)" xlink:href="#bD"/><use transform="matrix(0.015,0,0,0.015,48.60000000000001,0)" xlink:href="#bB"/><use transform="matrix(0.015,0,0,0.015,56.790000000000006,0)" xlink:href="#bC"/><use transform="matrix(0.015,0,0,0.015,60.660000000000004,0)" xlink:href="#bC"/><use transform="matrix(0.015,0,0,0.015,64.53,0)" xlink:href="#co"/></g><path d="M293 0h-95L4-509h91L246-85h3l146-424h88" id="cp"/><path d="M348-523c153 3 225 113 225 268 0 159-84 269-242 269-64 0-119-22-166-67l-8 53H87v-708h85v272h3c32-52 90-88 173-87zM321-54c109 1 165-89 165-201 0-111-49-200-153-200-99 0-161 67-161 165v169c40 39 78 65 149 67" id="cq"/><g id="aa"><use transform="matrix(0.015,0,0,0.015,0,0)" xlink:href="#bB"/><use transform="matrix(0.015,0,0,0.015,7.8,0)" xlink:href="#cp"/><use transform="matrix(0.015,0,0,0.015,14.879999999999999,0)" xlink:href="#bB"/><use transform="matrix(0.015,0,0,0.015,23.07,0)" xlink:href="#ck"/><use transform="matrix(0.015,0,0,0.015,26.94,0)" xlink:href="#bC"/><use transform="matrix(0.015,0,0,0.015,30.810000000000006,0)" xlink:href="#bB"/><use transform="matrix(0.015,0,0,0.015,39,0)" xlink:href="#cq"/><use transform="matrix(0.015,0,0,0.015,48.33,0)" xlink:href="#bC"/><use transform="matrix(0.015,0,0,0.015,52.199999999999996,0)" xlink:href="#bA"/></g><path d="M104-509c-11-136 44-213 171-213 33 0 62 4 89 13l-19 61c-85-20-162 3-156 97v42h128v65H189V0h-85v-444H15v-54" id="cr"/><path d="M499-315v64L147-41l-35-54 307-189-308-189 35-54" id="cs"/><g id="ab"><use transform="matrix(0.015,0,0,0.015,0,0)" xlink:href="#cr"/><use transform="matrix(0.015,0,0,0.015,4.95,0)" xlink:href="#bA"/><use transform="matrix(0.015,0,0,0.015,13.425,0)" xlink:href="#bB"/><use transform="matrix(0.015,0,0,0.015,21.525,0)" xlink:href="#bU"/><use transform="matrix(0.015,0,0,0.015,26.88,0)" xlink:href="#ca"/><use transform="matrix(0.015,0,0,0.015,36.105,0)" xlink:href="#bD"/><use transform="matrix(0.015,0,0,0.015,41.28,0)" xlink:href="#bA"/><use transform="matrix(0.015,0,0,0.015,49.755,0)" xlink:href="#bF"/><use transform="matrix(0.015,0,0,0.015,56.385000000000005,0)" xlink:href="#cs"/></g><path d="M329-708c148 1 256 75 253 230-3 151-104 233-251 233H179V0H90v-708h239zm162 231c0-108-70-160-170-160H178v320h145c95 0 168-60 168-160" id="ct"/><path d="M315-453c-88 0-144 74-144 161V0H86c-3-170 7-349-7-509h81c5 17 3 46 9 72 30-48 90-86 168-86 89 0 140 43 168 103 32-60 90-104 179-103 122 1 187 78 187 197V0h-85v-314c-1-78-37-142-120-139-97 3-146 77-146 174V0h-85v-316c-1-77-39-137-120-137" id="cu"/><g id="ac"><use transform="matrix(0.015,0,0,0.015,0,0)" xlink:href="#ct"/><use transform="matrix(0.015,0,0,0.015,8.715,0)" xlink:href="#bA"/><use transform="matrix(0.015,0,0,0.015,17.189999999999998,0)" xlink:href="#bD"/><use transform="matrix(0.015,0,0,0.015,22.65,0)" xlink:href="#cu"/><use transform="matrix(0.015,0,0,0.015,36.9,0)" xlink:href="#ck"/><use transform="matrix(0.015,0,0,0.015,40.769999999999996,0)" xlink:href="#bF"/><use transform="matrix(0.015,0,0,0.015,47.4,0)" xlink:href="#bF"/><use transform="matrix(0.015,0,0,0.015,54.03,0)" xlink:href="#ck"/><use transform="matrix(0.015,0,0,0.015,57.9,0)" xlink:href="#bZ"/><use transform="matrix(0.015,0,0,0.015,67.065,0)" xlink:href="#cb"/></g><path d="M519-192C526 49 168 67 30-66l45-56c53 42 105 63 193 64 90 1 164-42 161-131-3-108-85-124-177-151-113-33-191-67-197-195-9-210 320-235 451-122l-40 58c-51-32-98-52-175-53-81-1-152 34-149 111 4 95 69 103 160 131 125 38 213 72 217 218" id="cv"/><g id="ad"><use transform="matrix(0.015,0,0,0.015,0,0)" xlink:href="#cv"/><use transform="matrix(0.015,0,0,0.015,8.385,0)" xlink:href="#bA"/><use transform="matrix(0.015,0,0,0.015,16.77,0)" xlink:href="#bU"/></g><filter id="V" filterUnits="objectBoundingBox" x="-.02" y="-.01" width="1.03" height="1.03"><feOffset result="offOut" in="SourceAlpha" dy="3"/><feGaussianBlur result="blurOut" in="offOut" stdDeviation="2.5"/><feColorMatrix result="colorOut" in="blurOut" values="0 0 0 0 0.018823529411764708 0 0 0 0 0.018823529411764708 0 0 0 0 0.018823529411764708 0 0 0 0.2 0"/><feBlend in="SourceGraphic" in2="colorOut"/></filter><path d="M329 0H192L-2-520h136l127 393h3l124-393h131" id="cw"/><path d="M660 0H524c-41-127-77-259-120-384L289 0H154L9-520h132c30 126 55 257 88 381l114-381h130c40 126 75 257 117 381l88-381h127" id="cx"/><g id="ae"><use transform="matrix(0.02,0,0,0.02,0,0)" xlink:href="#cc"/><use transform="matrix(0.02,0,0,0.02,12.16,0)" xlink:href="#bM"/><use transform="matrix(0.02,0,0,0.02,19.72,0)" xlink:href="#by"/><use transform="matrix(0.02,0,0,0.02,31.220000000000002,0)" xlink:href="#cw"/><use transform="matrix(0.02,0,0,0.02,41.58,0)" xlink:href="#ce"/><use transform="matrix(0.02,0,0,0.02,47.22,0)" xlink:href="#by"/><use transform="matrix(0.02,0,0,0.02,58.800000000000004,0)" xlink:href="#cx"/></g><g id="af"><use transform="matrix(0.015,0,0,0.015,0,0)" xlink:href="#cj"/><use transform="matrix(0.015,0,0,0.015,8.355,0)" xlink:href="#cu"/><use transform="matrix(0.015,0,0,0.015,22.455,0)" xlink:href="#bB"/><use transform="matrix(0.015,0,0,0.015,30.644999999999996,0)" xlink:href="#ck"/><use transform="matrix(0.015,0,0,0.015,34.51499999999999,0)" xlink:href="#bC"/></g><path d="M226-68h84V0H54v-68h84v-574H54v-66h256v66h-84v574" id="cy"/><g id="ag"><use transform="matrix(0.015,0,0,0.015,0,0)" xlink:href="#cy"/><use transform="matrix(0.015,0,0,0.015,5.46,0)" xlink:href="#cb"/><use transform="matrix(0.015,0,0,0.015,14.28,0)" xlink:href="#cp"/><use transform="matrix(0.015,0,0,0.015,21.494999999999997,0)" xlink:href="#bZ"/><use transform="matrix(0.015,0,0,0.015,30.659999999999997,0)" xlink:href="#ck"/><use transform="matrix(0.015,0,0,0.015,34.529999999999994,0)" xlink:href="#bY"/><use transform="matrix(0.015,0,0,0.015,41.834999999999994,0)" xlink:href="#bA"/></g><path d="M517 0H415L259-214 109 0H9l198-267L31-509h97l135 193 134-193h92L315-267" id="cz"/><g id="ah"><use transform="matrix(0.015,0,0,0.015,0,0)" xlink:href="#cm"/><use transform="matrix(0.015,0,0,0.015,9.15,0)" xlink:href="#bA"/><use transform="matrix(0.015,0,0,0.015,17.235,0)" xlink:href="#cz"/><use transform="matrix(0.015,0,0,0.015,25.125,0)" xlink:href="#cl"/><use transform="matrix(0.015,0,0,0.015,34.455,0)" xlink:href="#bA"/><use transform="matrix(0.015,0,0,0.015,42.93,0)" xlink:href="#bD"/><use transform="matrix(0.015,0,0,0.015,48.39,0)" xlink:href="#ck"/><use transform="matrix(0.015,0,0,0.015,52.26,0)" xlink:href="#cu"/><use transform="matrix(0.015,0,0,0.015,66.50999999999999,0)" xlink:href="#bA"/><use transform="matrix(0.015,0,0,0.015,74.98499999999999,0)" xlink:href="#cb"/><use transform="matrix(0.015,0,0,0.015,84.10499999999998,0)" xlink:href="#bU"/><use transform="matrix(0.015,0,0,0.015,89.45999999999998,0)" xlink:href="#bB"/><use transform="matrix(0.015,0,0,0.015,97.64999999999998,0)" xlink:href="#bC"/></g><path d="M24-248c120-7 223 5 221 122C244-46 201 0 124 0H24v-248zM76-40c74 7 117-18 117-86 0-67-45-88-117-82v168" id="cA"/><path d="M25-224v-37h50v37H25zM25 0v-190h50V0H25" id="cB"/><path d="M133-34C117-15 103 5 69 4 32 3 11-16 11-54c-1-60 55-63 116-61 1-26-3-47-28-47-18 1-26 9-28 27l-52-2c7-38 36-58 82-57s74 22 75 68l1 82c-1 14 12 18 25 15v27c-30 8-71 5-69-32zm-48 3c29 0 43-24 42-57-32 0-66-3-65 30 0 17 8 27 23 27" id="cC"/><path d="M195-6C206 82 75 100 31 46c-4-6-6-13-8-21l49-6c3 16 16 24 34 25 40 0 42-37 40-79-11 22-30 35-61 35-53 0-70-43-70-97 0-56 18-96 73-97 30 0 46 14 59 34l2-30h47zm-90-29c32 0 41-27 41-63 0-35-9-62-40-62-32 0-39 29-40 63 0 36 9 62 39 62" id="cD"/><path d="M135-150c-39-12-60 13-60 57V0H25l-1-190h47c2 13-1 29 3 40 6-28 27-53 61-41v41" id="cE"/><path d="M220-157c-53 9-28 100-34 157h-49v-107c1-27-5-49-29-50C55-147 81-57 75 0H25l-1-190h47c2 12-1 28 3 38 10-53 101-56 108 0 13-22 24-43 59-42 82 1 51 116 57 194h-49v-107c-1-25-5-48-29-50" id="cF"/><g id="ai"><use transform="matrix(0.048713638603668376,0,0,0.048713638603668376,0,0)" xlink:href="#cA"/><use transform="matrix(0.048713638603668376,0,0,0.048713638603668376,12.616832398350112,0)" xlink:href="#cB"/><use transform="matrix(0.048713638603668376,0,0,0.048713638603668376,17.48819625871695,0)" xlink:href="#cC"/><use transform="matrix(0.048713638603668376,0,0,0.048713638603668376,27.230923979450623,0)" xlink:href="#cD"/><use transform="matrix(0.048713638603668376,0,0,0.048713638603668376,37.899210833654,0)" xlink:href="#cE"/><use transform="matrix(0.048713638603668376,0,0,0.048713638603668376,44.71912023816758,0)" xlink:href="#cC"/><use transform="matrix(0.048713638603668376,0,0,0.048713638603668376,54.461847958901245,0)" xlink:href="#cF"/></g><path d="M195 0l-88-114-31 24V0H24v-248h52v113l112-113h60L142-143 257 0h-62" id="cG"/><path d="M185-48c-13 30-37 53-82 52C43 2 14-33 14-96s30-98 90-98c62 0 83 45 84 108H66c0 31 8 55 39 56 18 0 30-7 34-22zm-45-69c5-46-57-63-70-21-2 6-4 13-4 21h74" id="cH"/><path d="M123 10C108 53 80 86 19 72V37c35 8 53-11 59-39L3-190h52l48 148c12-52 28-100 44-148h51" id="cI"/><g id="aj"><use transform="matrix(0.048713638603668376,0,0,0.048713638603668376,0,0)" xlink:href="#cG"/><use transform="matrix(0.048713638603668376,0,0,0.048713638603668376,12.616832398350112,0)" xlink:href="#cH"/><use transform="matrix(0.048713638603668376,0,0,0.048713638603668376,22.35956011908379,0)" xlink:href="#cI"/></g><path d="M30-248c87 1 191-15 191 75 0 78-77 80-158 76V0H30v-248zm33 125c57 0 124 11 124-50 0-59-68-47-124-48v98" id="cJ"/><path d="M100-194c63 0 86 42 84 106H49c0 40 14 67 53 68 26 1 43-12 49-29l28 8c-11 28-37 45-77 45C44 4 14-33 15-96c1-61 26-98 85-98zm52 81c6-60-76-77-97-28-3 7-6 17-6 28h103" id="cK"/><path d="M114-163C36-179 61-72 57 0H25l-1-190h30c1 12-1 29 2 39 6-27 23-49 58-41v29" id="cL"/><path d="M210-169c-67 3-38 105-44 169h-31v-121c0-29-5-50-35-48C34-165 62-65 56 0H25l-1-190h30c1 10-1 24 2 32 10-44 99-50 107 0 11-21 27-35 58-36 85-2 47 119 55 194h-31v-121c0-29-5-49-35-48" id="cM"/><path d="M24-231v-30h32v30H24zM24 0v-190h32V0H24" id="cN"/><path d="M135-143c-3-34-86-38-87 0 15 53 115 12 119 90S17 21 10-45l28-5c4 36 97 45 98 0-10-56-113-15-118-90-4-57 82-63 122-42 12 7 21 19 24 35" id="cO"/><path d="M100-194c62-1 85 37 85 99 1 63-27 99-86 99S16-35 15-95c0-66 28-99 85-99zM99-20c44 1 53-31 53-75 0-43-8-75-51-75s-53 32-53 75 10 74 51 75" id="cP"/><path d="M117-194c89-4 53 116 60 194h-32v-121c0-31-8-49-39-48C34-167 62-67 57 0H25l-1-190h30c1 10-1 24 2 32 11-22 29-35 61-36" id="cQ"/><g id="ak"><use transform="matrix(0.048713638603668376,0,0,0.048713638603668376,0,0)" xlink:href="#cJ"/><use transform="matrix(0.048713638603668376,0,0,0.048713638603668376,11.69127326488041,0)" xlink:href="#cK"/><use transform="matrix(0.048713638603668376,0,0,0.048713638603668376,21.434000985614084,0)" xlink:href="#cL"/><use transform="matrix(0.048713638603668376,0,0,0.048713638603668376,27.230923979450615,0)" xlink:href="#cM"/><use transform="matrix(0.048713638603668376,0,0,0.048713638603668376,41.79630192194747,0)" xlink:href="#cN"/><use transform="matrix(0.048713638603668376,0,0,0.048713638603668376,45.64467937163727,0)" xlink:href="#cO"/><use transform="matrix(0.048713638603668376,0,0,0.048713638603668376,54.41313432029757,0)" xlink:href="#cO"/><use transform="matrix(0.048713638603668376,0,0,0.048713638603668376,63.181589268957886,0)" xlink:href="#cN"/><use transform="matrix(0.048713638603668376,0,0,0.048713638603668376,67.02996671864769,0)" xlink:href="#cP"/><use transform="matrix(0.048713638603668376,0,0,0.048713638603668376,76.77269443938137,0)" xlink:href="#cQ"/></g><path d="M185-189c-5-48-123-54-124 2 14 75 158 14 163 119 3 78-121 87-175 55-17-10-28-26-33-46l33-7c5 56 141 63 141-1 0-78-155-14-162-118-5-82 145-84 179-34 5 7 8 16 11 25" id="cR"/><path d="M59-47c-2 24 18 29 38 22v24C64 9 27 4 27-40v-127H5v-23h24l9-43h21v43h35v23H59v120" id="cS"/><g id="al"><use transform="matrix(0.048713638603668376,0,0,0.048713638603668376,0,0)" xlink:href="#cR"/><use transform="matrix(0.048713638603668376,0,0,0.048713638603668376,11.69127326488041,0)" xlink:href="#cK"/><use transform="matrix(0.048713638603668376,0,0,0.048713638603668376,21.434000985614084,0)" xlink:href="#cS"/></g><path d="M143 4C61 4 22-44 18-125c-5-107 100-154 193-111 17 8 29 25 37 43l-32 9c-13-25-37-40-76-40-61 0-88 39-88 99 0 61 29 100 91 101 35 0 62-11 79-27v-45h-74v-28h105v86C228-13 192 4 143 4" id="cT"/><path d="M84 4C-5 8 30-112 23-190h32v120c0 31 7 50 39 49 72-2 45-101 50-169h31l1 190h-30c-1-10 1-25-2-33-11 22-28 36-60 37" id="cU"/><path d="M115-194c55 1 70 41 70 98S169 2 115 4C84 4 66-9 55-30l1 105H24l-1-265h31l2 30c10-21 28-34 59-34zm-8 174c40 0 45-34 45-75s-6-73-45-74c-42 0-51 32-51 76 0 43 10 73 51 73" id="cV"/><g id="am"><use transform="matrix(0.048713638603668376,0,0,0.048713638603668376,0,0)" xlink:href="#cT"/><use transform="matrix(0.048713638603668376,0,0,0.048713638603668376,13.639818809027146,0)" xlink:href="#cL"/><use transform="matrix(0.048713638603668376,0,0,0.048713638603668376,19.436741802863683,0)" xlink:href="#cP"/><use transform="matrix(0.048713638603668376,0,0,0.048713638603668376,29.17946952359736,0)" xlink:href="#cU"/><use transform="matrix(0.048713638603668376,0,0,0.048713638603668376,38.92219724433103,0)" xlink:href="#cV"/></g><path d="M16-82v-28h88v28H16" id="cW"/><use transform="matrix(0.048713638603668376,0,0,0.048713638603668376,0,0)" xlink:href="#cW" id="an"/><path d="M140-251c81 0 123 46 123 126C263-46 219 4 140 4 59 4 17-45 17-125s42-126 123-126zm0 227c63 0 89-41 89-101s-29-99-89-99c-61 0-89 39-89 99S79-25 140-24" id="cX"/><g id="ao"><use transform="matrix(0.048713638603668376,0,0,0.048713638603668376,0,0)" xlink:href="#cX"/><use transform="matrix(0.048713638603668376,0,0,0.048713638603668376,13.639818809027146,0)" xlink:href="#cQ"/><use transform="matrix(0.048713638603668376,0,0,0.048713638603668376,23.38254652976082,0)" xlink:href="#cK"/></g><path d="M101-234c-31-9-42 10-38 44h38v23H63V0H32v-167H5v-23h27c-7-52 17-82 69-68v24" id="cY"/><g id="ap"><use transform="matrix(0.048713638603668376,0,0,0.048713638603668376,0,0)" xlink:href="#cY"/><use transform="matrix(0.048713638603668376,0,0,0.048713638603668376,4.871363860366837,0)" xlink:href="#cP"/><use transform="matrix(0.048713638603668376,0,0,0.048713638603668376,14.614091581100512,0)" xlink:href="#cL"/></g><path d="M141-36C126-15 110 5 73 4 37 3 15-17 15-53c-1-64 63-63 125-63 3-35-9-54-41-54-24 1-41 7-42 31l-33-3c5-37 33-52 76-52 45 0 72 20 72 64v82c-1 20 7 32 28 27v20c-31 9-61-2-59-35zM48-53c0 20 12 33 32 33 41-3 63-29 60-74-43 2-92-5-92 41" id="cZ"/><path d="M96-169c-40 0-48 33-48 73s9 75 48 75c24 0 41-14 43-38l32 2c-6 37-31 61-74 61-59 0-76-41-82-99-10-93 101-131 147-64 4 7 5 14 7 22l-32 3c-4-21-16-35-41-35" id="da"/><path d="M106-169C34-169 62-67 57 0H25v-261h32l-1 103c12-21 28-36 61-36 89 0 53 116 60 194h-32v-121c2-32-8-49-39-48" id="db"/><g id="aq"><use transform="matrix(0.048713638603668376,0,0,0.048713638603668376,0,0)" xlink:href="#cK"/><use transform="matrix(0.048713638603668376,0,0,0.048713638603668376,9.742727720733674,0)" xlink:href="#cZ"/><use transform="matrix(0.048713638603668376,0,0,0.048713638603668376,19.485455441467348,0)" xlink:href="#da"/><use transform="matrix(0.048713638603668376,0,0,0.048713638603668376,28.253910390127658,0)" xlink:href="#db"/></g><g id="ar"><use transform="matrix(0.048713638603668376,0,0,0.048713638603668376,0,0)" xlink:href="#cJ"/><use transform="matrix(0.048713638603668376,0,0,0.048713638603668376,11.69127326488041,0)" xlink:href="#cK"/><use transform="matrix(0.048713638603668376,0,0,0.048713638603668376,21.434000985614084,0)" xlink:href="#cL"/><use transform="matrix(0.048713638603668376,0,0,0.048713638603668376,27.230923979450615,0)" xlink:href="#cO"/><use transform="matrix(0.048713638603668376,0,0,0.048713638603668376,35.99937892811093,0)" xlink:href="#cP"/><use transform="matrix(0.048713638603668376,0,0,0.048713638603668376,45.742106648844604,0)" xlink:href="#cQ"/><use transform="matrix(0.048713638603668376,0,0,0.048713638603668376,55.48483436957828,0)" xlink:href="#cZ"/></g><path d="M232-93c-1 65-40 97-104 97C67 4 28-28 28-90v-158h33c8 89-33 224 67 224 102 0 64-133 71-224h33v155" id="dc"/><g id="as"><use transform="matrix(0.048713638603668376,0,0,0.048713638603668376,0,0)" xlink:href="#dc"/><use transform="matrix(0.048713638603668376,0,0,0.048713638603668376,12.616832398350109,0)" xlink:href="#cO"/><use transform="matrix(0.048713638603668376,0,0,0.048713638603668376,21.38528734701042,0)" xlink:href="#cK"/><use transform="matrix(0.048713638603668376,0,0,0.048713638603668376,31.12801506774409,0)" xlink:href="#cL"/></g><g id="at"><use transform="matrix(0.048713638603668376,0,0,0.048713638603668376,0,0)" xlink:href="#cR"/><use transform="matrix(0.048713638603668376,0,0,0.048713638603668376,11.69127326488041,0)" xlink:href="#cK"/><use transform="matrix(0.048713638603668376,0,0,0.048713638603668376,21.434000985614084,0)" xlink:href="#cS"/></g><g id="au"><use transform="matrix(0.02,0,0,0.02,0,0)" xlink:href="#bx"/><use transform="matrix(0.02,0,0,0.02,14.8,0)" xlink:href="#by"/><use transform="matrix(0.02,0,0,0.02,26.38,0)" xlink:href="#bH"/><use transform="matrix(0.02,0,0,0.02,37.760000000000005,0)" xlink:href="#bJ"/><use transform="matrix(0.02,0,0,0.02,43.40000000000001,0)" xlink:href="#by"/><use transform="matrix(0.02,0,0,0.02,54.980000000000004,0)" xlink:href="#bM"/></g><g id="av"><use transform="matrix(0.015,0,0,0.015,0,0)" xlink:href="#cm"/><use transform="matrix(0.015,0,0,0.015,9.15,0)" xlink:href="#bz"/><use transform="matrix(0.015,0,0,0.015,20.130000000000003,0)" xlink:href="#bA"/><use transform="matrix(0.015,0,0,0.015,28.605000000000004,0)" xlink:href="#bB"/><use transform="matrix(0.015,0,0,0.015,36.795,0)" xlink:href="#bC"/><use transform="matrix(0.015,0,0,0.015,40.665,0)" xlink:href="#bA"/><use transform="matrix(0.015,0,0,0.015,49.14,0)" xlink:href="#bD"/></g><g id="aw"><use transform="matrix(0.015,0,0,0.015,0,0)" xlink:href="#bZ"/><use transform="matrix(0.015,0,0,0.015,9.165,0)" xlink:href="#cb"/><use transform="matrix(0.015,0,0,0.015,18.375,0)" xlink:href="#bC"/><use transform="matrix(0.015,0,0,0.015,22.245,0)" xlink:href="#co"/></g><path d="M479-153H191L134 0H-3l272-708h135L675 0H533zM226-253h219L336-574" id="dd"/><path d="M257 257C121 257 16 215 16 96 16 41 47-4 108-41c-25-16-43-33-43-70 0-44 33-71 72-82-59-31-88-82-88-153 0-157 169-219 323-174h189v99l-105-17c24 21 38 60 38 105-1 116-95 170-219 170-48 0-90 5-96 40 8 33 46 35 96 37 92 3 160 16 204 41s66 62 66 112c0 141-130 190-288 190zm-94-605c1 63 40 98 108 98 72 0 108-31 108-94-1-64-39-99-108-99-61 0-108 37-108 95zm97 512c85-1 161-15 161-84 0-25-17-43-51-54S276 9 192 8c-37 21-55 48-55 81 0 50 41 75 123 75" id="de"/><g id="ax"><use transform="matrix(0.02,0,0,0.02,0,0)" xlink:href="#dd"/><use transform="matrix(0.02,0,0,0.02,13.46,0)" xlink:href="#de"/><use transform="matrix(0.02,0,0,0.02,25.080000000000002,0)" xlink:href="#bw"/><use transform="matrix(0.02,0,0,0.02,37.74,0)" xlink:href="#by"/><use transform="matrix(0.02,0,0,0.02,49.32,0)" xlink:href="#bS"/></g><path d="M485 12c41 67 114 79 228 79v107c-199 1-313-45-368-183C155-12 44-142 44-354c0-231 130-373 362-373s359 142 362 373c3 198-110 339-283 366zM178-354c0 154 74 260 228 260s228-106 228-260-74-260-228-260-228 106-228 260" id="df"/><g id="ay"><use transform="matrix(0.02,0,0,0.02,0,0)" xlink:href="#df"/><use transform="matrix(0.02,0,0,0.02,15.840000000000003,0)" xlink:href="#dd"/></g><g id="az"><use transform="matrix(0.015,0,0,0.015,0,0)" xlink:href="#cc"/><use transform="matrix(0.015,0,0,0.015,9.12,0)" xlink:href="#bM"/><use transform="matrix(0.015,0,0,0.015,14.79,0)" xlink:href="#by"/><use transform="matrix(0.015,0,0,0.015,23.415,0)" xlink:href="#cw"/><use transform="matrix(0.015,0,0,0.015,31.185,0)" xlink:href="#ce"/><use transform="matrix(0.015,0,0,0.015,35.415,0)" xlink:href="#by"/><use transform="matrix(0.015,0,0,0.015,44.1,0)" xlink:href="#cx"/></g><path d="M324-452c-91 0-152 70-152 160V0H87v-708h85c1 89-3 184 2 270 34-50 90-85 174-85 123 0 188 80 188 194V0h-85v-312c-1-82-40-140-127-140" id="dg"/><g id="aA"><use transform="matrix(0.015,0,0,0.015,0,0)" xlink:href="#bK"/><use transform="matrix(0.015,0,0,0.015,7.4399999999999995,0)" xlink:href="#bA"/><use transform="matrix(0.015,0,0,0.015,15.915,0)" xlink:href="#bB"/><use transform="matrix(0.015,0,0,0.015,24.104999999999997,0)" xlink:href="#bL"/><use transform="matrix(0.015,0,0,0.015,33.419999999999995,0)" xlink:href="#bA"/><use transform="matrix(0.015,0,0,0.015,41.894999999999996,0)" xlink:href="#bD"/><use transform="matrix(0.015,0,0,0.015,47.355,0)" xlink:href="#bF"/><use transform="matrix(0.015,0,0,0.015,53.985,0)" xlink:href="#dg"/><use transform="matrix(0.015,0,0,0.015,63.21,0)" xlink:href="#ck"/><use transform="matrix(0.015,0,0,0.015,67.08,0)" xlink:href="#cl"/></g><path fill="#fff" d="M140-251c81 0 123 46 123 126C263-53 228-8 163 1c7 30 30 48 69 40v23c-55 16-95-15-103-61C56-3 17-48 17-125c0-80 42-126 123-126zm0 227c63 0 89-41 89-101s-29-99-89-99c-61 0-89 39-89 99S79-25 140-24" id="dh"/><path fill="#fff" d="M205 0l-28-72H64L36 0H1l101-248h38L239 0h-34zm-38-99l-47-123c-12 45-31 82-46 123h93" id="di"/><g id="aB"><use transform="matrix(0.06172839506172839,0,0,0.06172839506172839,0,0)" xlink:href="#dh"/><use transform="matrix(0.06172839506172839,0,0,0.06172839506172839,17.28395061728395,0)" xlink:href="#di"/></g><path fill="#fff" d="M233-177c-1 41-23 64-60 70L243 0h-38l-65-103H63V0H30v-248c88 3 205-21 203 71zM63-129c60-2 137 13 137-47 0-61-80-42-137-45v92" id="dj"/><path fill="#fff" d="M100-194c62-1 85 37 85 99 1 63-27 99-86 99S16-35 15-95c0-66 28-99 85-99zM99-20c44 1 53-31 53-75 0-43-8-75-51-75s-53 32-53 75 10 74 51 75" id="dk"/><path fill="#fff" d="M24 0v-261h32V0H24" id="dl"/><path fill="#fff" d="M84 4C-5 8 30-112 23-190h32v120c0 31 7 50 39 49 72-2 45-101 50-169h31l1 190h-30c-1-10 1-25-2-33-11 22-28 36-60 37" id="dm"/><path fill="#fff" d="M59-47c-2 24 18 29 38 22v24C64 9 27 4 27-40v-127H5v-23h24l9-43h21v43h35v23H59v120" id="dn"/><g id="aC"><use transform="matrix(0.06172839506172839,0,0,0.06172839506172839,0,0)" xlink:href="#dj"/><use transform="matrix(0.06172839506172839,0,0,0.06172839506172839,15.987654320987653,0)" xlink:href="#dk"/><use transform="matrix(0.06172839506172839,0,0,0.06172839506172839,28.333333333333332,0)" xlink:href="#dl"/><use transform="matrix(0.06172839506172839,0,0,0.06172839506172839,33.20987654320987,0)" xlink:href="#dl"/><use transform="matrix(0.06172839506172839,0,0,0.06172839506172839,38.08641975308642,0)" xlink:href="#dk"/><use transform="matrix(0.06172839506172839,0,0,0.06172839506172839,50.432098765432094,0)" xlink:href="#dm"/><use transform="matrix(0.06172839506172839,0,0,0.06172839506172839,62.77777777777777,0)" xlink:href="#dn"/></g><path fill="#fff" d="M30-248c118-7 216 8 213 122C240-48 200 0 122 0H30v-248zM63-27c89 8 146-16 146-99s-60-101-146-95v194" id="do"/><path fill="#fff" d="M100-194c63 0 86 42 84 106H49c0 40 14 67 53 68 26 1 43-12 49-29l28 8c-11 28-37 45-77 45C44 4 14-33 15-96c1-61 26-98 85-98zm52 81c6-60-76-77-97-28-3 7-6 17-6 28h103" id="dp"/><path fill="#fff" d="M108 0H70L1-190h34L89-25l56-165h34" id="dq"/><path fill="#fff" d="M115-194c55 1 70 41 70 98S169 2 115 4C84 4 66-9 55-30l1 105H24l-1-265h31l2 30c10-21 28-34 59-34zm-8 174c40 0 45-34 45-75s-6-73-45-74c-42 0-51 32-51 76 0 43 10 73 51 73" id="dr"/><g id="aD"><use transform="matrix(0.06172839506172839,0,0,0.06172839506172839,0,0)" xlink:href="#do"/><use transform="matrix(0.06172839506172839,0,0,0.06172839506172839,15.987654320987653,0)" xlink:href="#dp"/><use transform="matrix(0.06172839506172839,0,0,0.06172839506172839,28.333333333333332,0)" xlink:href="#dq"/><use transform="matrix(0.06172839506172839,0,0,0.06172839506172839,39.44444444444444,0)" xlink:href="#dp"/><use transform="matrix(0.06172839506172839,0,0,0.06172839506172839,51.79012345679012,0)" xlink:href="#dl"/><use transform="matrix(0.06172839506172839,0,0,0.06172839506172839,56.666666666666664,0)" xlink:href="#dk"/><use transform="matrix(0.06172839506172839,0,0,0.06172839506172839,69.01234567901234,0)" xlink:href="#dr"/></g><path fill="#fff" d="M63-220v92h138v28H63V0H30v-248h175v28H63" id="ds"/><path fill="#fff" d="M141-36C126-15 110 5 73 4 37 3 15-17 15-53c-1-64 63-63 125-63 3-35-9-54-41-54-24 1-41 7-42 31l-33-3c5-37 33-52 76-52 45 0 72 20 72 64v82c-1 20 7 32 28 27v20c-31 9-61-2-59-35zM48-53c0 20 12 33 32 33 41-3 63-29 60-74-43 2-92-5-92 41" id="dt"/><path fill="#fff" d="M114-163C36-179 61-72 57 0H25l-1-190h30c1 12-1 29 2 39 6-27 23-49 58-41v29" id="du"/><g id="aE"><use transform="matrix(0.06172839506172839,0,0,0.06172839506172839,0,0)" xlink:href="#ds"/><use transform="matrix(0.06172839506172839,0,0,0.06172839506172839,13.518518518518517,0)" xlink:href="#dp"/><use transform="matrix(0.06172839506172839,0,0,0.06172839506172839,25.864197530864196,0)" xlink:href="#dt"/><use transform="matrix(0.06172839506172839,0,0,0.06172839506172839,38.20987654320987,0)" xlink:href="#dn"/><use transform="matrix(0.06172839506172839,0,0,0.06172839506172839,44.382716049382715,0)" xlink:href="#dm"/><use transform="matrix(0.06172839506172839,0,0,0.06172839506172839,56.72839506172839,0)" xlink:href="#du"/><use transform="matrix(0.06172839506172839,0,0,0.06172839506172839,64.07407407407408,0)" xlink:href="#dp"/></g><path fill="#fff" d="M232-93c-1 65-40 97-104 97C67 4 28-28 28-90v-158h33c8 89-33 224 67 224 102 0 64-133 71-224h33v155" id="dv"/><path fill="#fff" d="M127-220V0H93v-220H8v-28h204v28h-85" id="dw"/><g id="aF"><use transform="matrix(0.06172839506172839,0,0,0.06172839506172839,0,0)" xlink:href="#dv"/><use transform="matrix(0.06172839506172839,0,0,0.06172839506172839,15.987654320987653,0)" xlink:href="#di"/><use transform="matrix(0.06172839506172839,0,0,0.06172839506172839,29.1358024691358,0)" xlink:href="#dw"/></g><path fill="#fff" d="M185-189c-5-48-123-54-124 2 14 75 158 14 163 119 3 78-121 87-175 55-17-10-28-26-33-46l33-7c5 56 141 63 141-1 0-78-155-14-162-118-5-82 145-84 179-34 5 7 8 16 11 25" id="dx"/><path fill="#fff" d="M177-190C167-65 218 103 67 71c-23-6-38-20-44-43l32-5c15 47 100 32 89-28v-30C133-14 115 1 83 1 29 1 15-40 15-95c0-56 16-97 71-98 29-1 48 16 59 35 1-10 0-23 2-32h30zM94-22c36 0 50-32 50-73 0-42-14-75-50-75-39 0-46 34-46 75s6 73 46 73" id="dy"/><path fill="#fff" d="M85-194c31 0 48 13 60 33l-1-100h32l1 261h-30c-2-10 0-23-3-31C134-8 116 4 85 4 32 4 16-35 15-94c0-66 23-100 70-100zm9 24c-40 0-46 34-46 75 0 40 6 74 45 74 42 0 51-32 51-76 0-42-9-74-50-73" id="dz"/><g id="aG"><use transform="matrix(0.06172839506172839,0,0,0.06172839506172839,0,0)" xlink:href="#dx"/><use transform="matrix(0.06172839506172839,0,0,0.06172839506172839,14.814814814814813,0)" xlink:href="#dn"/><use transform="matrix(0.06172839506172839,0,0,0.06172839506172839,20.98765432098765,0)" xlink:href="#dt"/><use transform="matrix(0.06172839506172839,0,0,0.06172839506172839,33.33333333333333,0)" xlink:href="#dy"/><use transform="matrix(0.06172839506172839,0,0,0.06172839506172839,45.679012345679006,0)" xlink:href="#dp"/><use transform="matrix(0.06172839506172839,0,0,0.06172839506172839,58.02469135802468,0)" xlink:href="#dz"/></g><path fill="#fff" d="M143 4C61 4 22-44 18-125c-5-107 100-154 193-111 17 8 29 25 37 43l-32 9c-13-25-37-40-76-40-61 0-88 39-88 99 0 61 29 100 91 101 35 0 62-11 79-27v-45h-74v-28h105v86C228-13 192 4 143 4" id="dA"/><path fill="#fff" d="M115-194c53 0 69 39 70 98 0 66-23 100-70 100C84 3 66-7 56-30L54 0H23l1-261h32v101c10-23 28-34 59-34zm-8 174c40 0 45-34 45-75 0-40-5-75-45-74-42 0-51 32-51 76 0 43 10 73 51 73" id="dB"/><g id="aH"><use transform="matrix(0.06172839506172839,0,0,0.06172839506172839,0,0)" xlink:href="#dA"/><use transform="matrix(0.06172839506172839,0,0,0.06172839506172839,17.28395061728395,0)" xlink:href="#dl"/><use transform="matrix(0.06172839506172839,0,0,0.06172839506172839,22.160493827160494,0)" xlink:href="#dk"/><use transform="matrix(0.06172839506172839,0,0,0.06172839506172839,34.50617283950617,0)" xlink:href="#dB"/><use transform="matrix(0.06172839506172839,0,0,0.06172839506172839,46.85185185185185,0)" xlink:href="#dt"/><use transform="matrix(0.06172839506172839,0,0,0.06172839506172839,59.197530864197525,0)" xlink:href="#dl"/></g></defs></g></svg>