<svg xmlns="http://www.w3.org/2000/svg" xmlns:xlink="http://www.w3.org/1999/xlink" viewBox="15 15 70 70">
    <path d="M20 44.17a2.5 2.5 0 015 0V77.5a2.5 2.5 0 01-5 0V44.17zM75 57.5c2.76 0 5 2.24 5 5v15a2.5 2.5 0 01-5 0v-20zM25 57.5h50v14.17H25V57.5zM25 50h6.5c3.31 0 6 2.69 6 6v1.5H25V50zM60.38 29.06h-5.44v-5.44c0-1.99-1.63-3.62-3.62-3.62H47.7c-1.99 0-3.62 1.63-3.62 3.62v5.44h-5.44c-1.99 0-3.62 1.63-3.62 3.62v3.62c0 1.99 1.63 3.62 3.62 3.62h5.44v5.44c0 1.99 1.63 3.62 3.62 3.62h3.62c1.99 0 3.62-1.63 3.62-3.62v-5.44h5.44c1.99 0 3.62-1.63 3.62-3.62v-3.62c0-1.99-1.63-3.62-3.62-3.62z"/>
</svg>